<svg width="129" height="95" viewBox="0 0 129 95" fill="none" xmlns="http://www.w3.org/2000/svg">
<path d="M129 31.3173C127.934 31.8006 126.863 32.2569 125.819 32.762C119.191 35.9846 112.567 39.2108 105.947 42.4407C105.668 42.5765 105.4 42.6797 104.903 42.8806C104.903 41.6911 104.876 40.6701 104.903 39.649C104.926 39.4547 104.885 39.2583 104.787 39.089C104.688 38.9196 104.537 38.7865 104.356 38.7093C97.448 34.87 90.1467 31.7747 82.5768 29.476C78.1638 28.0895 73.6176 27.163 69.0117 26.7114C62.8479 26.2293 56.6464 26.7652 50.6589 28.2974C41.5659 30.6418 32.8201 34.1567 24.6435 38.7528C24.4913 38.8589 24.3638 38.9963 24.2695 39.1555C24.1752 39.3148 24.1164 39.4923 24.097 39.6761C24.0205 40.6212 24.0587 41.5717 24.0478 42.5276C24.0131 42.6387 23.9674 42.746 23.9112 42.848L14.5872 38.378V40.3116C14.5872 54.9618 14.5762 69.6084 14.5544 84.2513C14.5443 84.6085 14.6713 84.9561 14.9096 85.2235C18.6753 88.5312 18.4785 92.2083 14.3631 95H9.58086C9.5426 94.9566 9.51527 94.8968 9.47155 94.8696C5.64577 92.8655 5.41075 87.5916 8.92501 85.3702C9.09687 85.2134 9.23417 85.0228 9.32824 84.8106C9.4223 84.5984 9.4711 84.3692 9.47155 84.1373C9.47155 75.6861 9.47155 67.2403 9.47155 58.7945C9.47155 51.4151 9.47155 44.0339 9.47155 36.6508C9.50796 36.3995 9.45464 36.1435 9.32085 35.9272C9.18706 35.7109 8.98126 35.548 8.73919 35.4668C7.58052 34.9671 6.47651 34.3479 5.33424 33.8048C3.56345 32.9684 1.78172 32.1754 0 31.3281V31.1543C0.113795 31.1393 0.225595 31.112 0.33339 31.0728L14.2374 24.2619L53.3916 5.12177C56.8676 3.42357 60.329 1.71631 63.7758 0H65.1968C65.3444 0.0923332 65.4865 0.195529 65.6395 0.271568L115.85 24.767C120.223 26.9034 124.595 29.0288 128.967 31.1434L129 31.3173Z" fill="#F5F5F5"/>
<path d="M99.8676 64.9675C88.1984 61.1376 76.1875 60.0852 64.0626 60.0852C51.9378 60.0852 39.9106 61.1322 28.16 65C28.1112 64.0615 28.0244 63.1881 28.019 62.3202C27.9937 55.6695 27.9937 49.0187 28.019 42.368C28.0368 42.2109 28.0888 42.0595 28.1713 41.9246C28.2537 41.7897 28.3647 41.6744 28.4964 41.5868C37.0516 37.0843 45.9486 33.5148 55.5454 31.7138C59.8451 30.9812 64.2219 30.8116 68.5654 31.2093C75.9488 31.7518 82.8711 34.0899 89.6361 36.8727C92.929 38.2289 96.0972 39.8618 99.3305 41.3536C99.5341 41.4126 99.7113 41.5395 99.8327 41.7132C99.9541 41.8869 100.012 42.0969 99.9978 42.3083C99.9707 49.7348 99.9707 57.1613 99.9598 64.5931C99.9357 64.7194 99.9049 64.8444 99.8676 64.9675Z" fill="#F5F5F5"/>
</svg>
