<svg width="334" height="286" viewBox="0 0 334 286" fill="none" xmlns="http://www.w3.org/2000/svg">
<path d="M29.9098 141C21.9098 119.57 22.5798 64.5 61.3798 36.77C100.18 9.04003 151.38 38.2 162.33 44.42C173.28 50.64 190.8 59.57 220.33 52.95C249.86 46.33 290.95 74.54 301.47 106.57C311.99 138.6 313.4 200 283.29 236.23C253.18 272.46 176.45 293.53 113.93 271.06C51.4098 248.59 69.5898 193.61 58.1098 177.35C46.6298 161.09 37.0798 160.16 29.9098 141Z" fill="#072138"/>
<path d="M229.52 55.2599L229.99 45.8899C230.018 45.223 229.823 44.566 229.435 44.0226C229.047 43.4792 228.49 43.0807 227.85 42.8899L225.15 42.0999C224.691 41.9807 224.269 41.7505 223.92 41.4297C223.572 41.1088 223.307 40.7071 223.15 40.2599C222.693 38.9237 222.152 37.6178 221.53 36.3499C221.317 35.9149 221.217 35.4335 221.238 34.9496C221.259 34.4658 221.4 33.9949 221.65 33.5799L223.4 30.5799C223.721 30.0225 223.855 29.3764 223.781 28.7372C223.707 28.098 223.43 27.4994 222.99 27.0299L216.52 20.2299C216.057 19.7517 215.448 19.441 214.789 19.3469C214.13 19.2527 213.458 19.3804 212.88 19.7099L209.31 21.7899C208.901 22.0245 208.443 22.1595 207.972 22.1838C207.501 22.2081 207.031 22.1212 206.6 21.9299C206.157 21.7327 205.769 21.4284 205.472 21.0444C205.176 20.6604 204.979 20.2087 204.9 19.7299L204.14 15.2899C204.029 14.6549 203.715 14.0728 203.247 13.6297C202.779 13.1866 202.18 12.9061 201.54 12.8299L192.21 11.8299C191.541 11.7657 190.87 11.9279 190.304 12.2905C189.739 12.6532 189.311 13.1953 189.09 13.8299L187.37 18.6499C187.214 19.0892 186.956 19.4852 186.617 19.8051C186.278 20.125 185.868 20.3598 185.42 20.4899L184.98 20.6199C184.52 20.758 184.033 20.781 183.563 20.6868C183.092 20.5927 182.651 20.3842 182.28 20.0799L177.72 16.3999C177.221 15.9907 176.601 15.7573 175.955 15.7356C175.31 15.7139 174.676 15.9052 174.15 16.2799L166.47 21.6699C165.928 22.0579 165.53 22.6155 165.34 23.2548C165.149 23.8941 165.178 24.5785 165.42 25.1999L168.33 32.5199L169 31.9999C168.49 32.6999 168 33.4199 167.57 34.1599C167.342 34.5314 167.032 34.8466 166.665 35.0821C166.298 35.3175 165.883 35.4672 165.45 35.5199L160.67 36.1499C160.033 36.2384 159.442 36.5291 158.983 36.9792C158.523 37.4293 158.221 38.015 158.12 38.6499L156.69 47.9999C156.598 48.6593 156.728 49.3307 157.059 49.9082C157.39 50.4857 157.904 50.9366 158.52 51.1899L161.67 52.4599C162.143 52.6484 162.559 52.9569 162.876 53.355C163.193 53.753 163.402 54.2269 163.48 54.7299C163.678 55.9911 163.948 57.2399 164.29 58.4699C164.405 58.8941 164.421 59.3389 164.338 59.7704C164.255 60.2018 164.074 60.6087 163.81 60.9599L161.7 63.8499C161.324 64.3738 161.127 65.005 161.137 65.6498C161.148 66.2947 161.367 66.9189 161.76 67.4299L167.52 74.8299C167.934 75.3541 168.51 75.7253 169.159 75.8847C169.807 76.0441 170.49 75.9826 171.1 75.7099L173.01 74.8299C173.48 74.614 173.998 74.5261 174.513 74.5753C175.027 74.6245 175.52 74.8089 175.94 75.1099C177.38 76.1445 178.905 77.0545 180.5 77.8299C180.909 78.0329 181.263 78.3301 181.534 78.6969C181.806 79.0638 181.986 79.4898 182.06 79.9399L182.46 82.1299C182.58 82.7605 182.9 83.3359 183.371 83.7715C183.843 84.2071 184.442 84.48 185.08 84.5499L194.43 85.4799C195.094 85.5371 195.758 85.3716 196.318 85.0095C196.877 84.6473 197.3 84.1091 197.52 83.4799L197.96 82.2099C198.125 81.7266 198.412 81.2945 198.794 80.9561C199.177 80.6177 199.64 80.3846 200.14 80.2799C202.111 79.8829 204.037 79.2899 205.89 78.5099C206.334 78.3252 206.816 78.2532 207.294 78.3003C207.772 78.3475 208.231 78.5122 208.63 78.7799L210.01 79.6799C210.55 80.0276 211.187 80.1929 211.828 80.1515C212.469 80.1101 213.079 79.8642 213.57 79.4499L220.68 73.3199C221.181 72.8811 221.521 72.2883 221.648 71.6347C221.775 70.9812 221.68 70.304 221.38 69.7099L220.63 68.2599C220.394 67.8329 220.27 67.3529 220.27 66.8649C220.27 66.3769 220.394 65.8969 220.63 65.4699C221.56 63.8465 222.344 62.143 222.97 60.3799C223.139 59.9222 223.419 59.514 223.786 59.1926C224.153 58.8712 224.594 58.6468 225.07 58.5399L227.19 58.0499C227.83 57.9039 228.405 57.5519 228.826 57.048C229.247 56.544 229.491 55.9158 229.52 55.2599ZM194 65.8299C190.877 65.8299 187.823 64.9036 185.227 63.1681C182.63 61.4326 180.606 58.966 179.411 56.0802C178.216 53.1943 177.904 50.019 178.514 46.9557C179.124 43.8925 180.629 41.079 182.838 38.8711C185.048 36.6633 187.862 35.1602 190.926 34.5521C193.989 33.944 197.164 34.2581 200.05 35.4547C202.935 36.6514 205.4 38.6768 207.134 41.2747C208.868 43.8727 209.792 46.9265 209.79 50.0499C209.79 52.123 209.382 54.1758 208.588 56.091C207.794 58.0061 206.631 59.7461 205.165 61.2116C203.698 62.677 201.958 63.8392 200.042 64.6316C198.126 65.424 196.073 65.8312 194 65.8299Z" fill="#825ADC"/>
<path d="M45.4498 142L45.7398 136.13C45.7591 135.744 45.647 135.363 45.4218 135.049C45.1966 134.734 44.8716 134.506 44.4998 134.4L42.7298 133.88C42.459 133.797 42.2122 133.65 42.0102 133.452C41.8083 133.254 41.6572 133.009 41.5698 132.74C41.2912 131.938 40.957 131.156 40.5698 130.4C40.4324 130.143 40.3605 129.856 40.3605 129.565C40.3605 129.274 40.4324 128.987 40.5698 128.73L41.6998 126.82C41.8894 126.497 41.9685 126.122 41.9252 125.75C41.8819 125.378 41.7185 125.03 41.4598 124.76L37.4598 120.5C37.1904 120.221 36.8355 120.04 36.4514 119.985C36.0673 119.931 35.6761 120.007 35.3398 120.2L33.0598 121.53C32.8165 121.67 32.5427 121.748 32.2622 121.759C31.9817 121.769 31.7029 121.711 31.4498 121.59C31.1896 121.471 30.9624 121.291 30.7881 121.064C30.6138 120.838 30.4976 120.572 30.4498 120.29L29.9698 117.47C29.9056 117.101 29.724 116.762 29.452 116.505C29.1799 116.247 28.8319 116.084 28.4598 116.04L22.6198 115.4C22.235 115.357 21.8469 115.445 21.5184 115.65C21.1899 115.855 20.9403 116.165 20.8098 116.53L19.7198 119.59C19.6217 119.85 19.4638 120.083 19.2588 120.271C19.0538 120.459 18.8075 120.595 18.5398 120.67L18.2798 120.75C18.0056 120.834 17.7151 120.851 17.433 120.799C17.1509 120.746 16.8857 120.627 16.6598 120.45L13.7898 118.13C13.5007 117.892 13.141 117.756 12.7667 117.743C12.3924 117.731 12.0244 117.842 11.7198 118.06L6.91981 121.43C6.61119 121.649 6.38389 121.964 6.27351 122.326C6.16313 122.688 6.17589 123.076 6.30981 123.43L8.10981 127.96L8.48982 127.7C8.17982 128.13 7.87981 128.57 7.60981 129.03C7.47234 129.252 7.28684 129.439 7.06701 129.58C6.84719 129.72 6.59866 129.809 6.33981 129.84L3.33981 130.24C2.96966 130.29 2.62551 130.458 2.35875 130.719C2.09199 130.98 1.91695 131.321 1.85981 131.69L0.999813 137.5C0.942688 137.883 1.01623 138.273 1.20857 138.609C1.40091 138.945 1.70081 139.206 2.05981 139.35L4.05981 140.17C4.34281 140.287 4.59037 140.476 4.77803 140.718C4.96568 140.96 5.08695 141.247 5.12982 141.55C5.23876 142.307 5.39912 143.055 5.60981 143.79C5.6831 144.045 5.69778 144.313 5.65275 144.575C5.60773 144.836 5.50418 145.084 5.34982 145.3L3.99981 147.18C3.77353 147.478 3.65101 147.841 3.65101 148.215C3.65101 148.589 3.77353 148.952 3.99981 149.25L7.60981 153.88C7.84724 154.185 8.18067 154.402 8.55627 154.494C8.93187 154.587 9.32768 154.55 9.67981 154.39L10.9698 153.8C11.2514 153.675 11.5611 153.628 11.867 153.664C12.1729 153.699 12.4638 153.815 12.7098 154C13.5795 154.625 14.4993 155.177 15.4598 155.65C15.7144 155.763 15.9381 155.936 16.1121 156.153C16.2861 156.371 16.4053 156.627 16.4598 156.9L16.7198 158.35C16.7874 158.719 16.9732 159.056 17.2492 159.311C17.5252 159.565 17.8764 159.723 18.2498 159.76L24.0898 160.34C24.4762 160.375 24.8633 160.28 25.1894 160.07C25.5155 159.86 25.7621 159.546 25.8898 159.18L26.1998 158.29C26.3024 158.003 26.4781 157.748 26.7097 157.55C26.9412 157.351 27.2204 157.217 27.5198 157.16C28.7158 156.915 29.8847 156.554 31.0098 156.08C31.2735 155.966 31.5612 155.919 31.8474 155.944C32.1336 155.968 32.4092 156.063 32.6498 156.22L33.5898 156.83C33.9026 157.035 34.2733 157.133 34.6465 157.11C35.0196 157.086 35.3752 156.942 35.6598 156.7L40.1098 152.87C40.4021 152.615 40.6005 152.27 40.673 151.889C40.7455 151.508 40.6881 151.114 40.5098 150.77L39.9998 149.77C39.8662 149.506 39.8016 149.213 39.8121 148.917C39.8226 148.622 39.9078 148.334 40.0598 148.08C40.6169 147.107 41.0855 146.087 41.4598 145.03C41.5548 144.75 41.7193 144.498 41.9379 144.299C42.1565 144.1 42.4221 143.959 42.7098 143.89L44.1198 143.56C44.4788 143.476 44.8015 143.279 45.0408 142.998C45.28 142.718 45.4234 142.368 45.4498 142ZM23.7298 148.38C21.8228 148.38 19.9586 147.814 18.3731 146.755C16.7876 145.695 15.552 144.189 14.8227 142.427C14.0933 140.665 13.903 138.726 14.2758 136.856C14.6486 134.985 15.5677 133.268 16.9168 131.92C18.266 130.572 19.9846 129.655 21.8553 129.284C23.7259 128.913 25.6645 129.106 27.4258 129.837C29.1871 130.568 30.692 131.805 31.7501 133.392C32.8081 134.978 33.3718 136.843 33.3698 138.75C33.3619 141.301 32.3427 143.746 30.5357 145.547C28.7287 147.348 26.2813 148.36 23.7298 148.36V148.38Z" fill="#825ADC"/>
<path d="M46.4902 189.27L46.6602 185.85C46.6685 185.625 46.601 185.405 46.4686 185.223C46.3361 185.042 46.1465 184.91 45.9302 184.85L44.9302 184.55C44.7718 184.502 44.6277 184.416 44.5108 184.299C44.3939 184.182 44.3078 184.038 44.2602 183.88C44.1013 183.414 43.9108 182.96 43.6902 182.52C43.6024 182.368 43.5562 182.195 43.5562 182.02C43.5562 181.844 43.6024 181.672 43.6902 181.52L44.3502 180.4C44.4609 180.212 44.5071 179.993 44.4819 179.776C44.4566 179.56 44.3612 179.357 44.2102 179.2L41.8502 176.72C41.6956 176.555 41.4899 176.448 41.2665 176.416C41.0432 176.383 40.8154 176.427 40.6202 176.54L39.2902 177.31C39.1455 177.387 38.9841 177.427 38.8202 177.427C38.6563 177.427 38.4949 177.387 38.3502 177.31C38.1953 177.245 38.0591 177.143 37.9543 177.012C37.8494 176.881 37.7792 176.725 37.7502 176.56L37.4702 174.91C37.4343 174.694 37.3288 174.497 37.1699 174.347C37.011 174.197 36.8074 174.103 36.5902 174.08L33.1802 173.7C32.9564 173.676 32.731 173.728 32.5405 173.847C32.3499 173.967 32.2054 174.148 32.1302 174.36L31.4902 176.15C31.4351 176.303 31.3435 176.441 31.2233 176.55C31.103 176.66 30.9578 176.739 30.8002 176.78H30.6502C30.4917 176.832 30.3227 176.844 30.1586 176.814C29.9944 176.785 29.8402 176.714 29.7102 176.61L28.0002 175.34C27.8271 175.21 27.6165 175.14 27.4002 175.14C27.1838 175.14 26.9733 175.21 26.8002 175.34L23.9902 177.34C23.8064 177.47 23.6719 177.658 23.6084 177.874C23.5449 178.09 23.5561 178.321 23.6402 178.53L24.6902 181.18L24.9102 181.02C24.7302 181.28 24.5602 181.54 24.4002 181.8C24.3217 181.931 24.2143 182.043 24.086 182.126C23.9577 182.209 23.812 182.262 23.6602 182.28L21.9102 182.51C21.6933 182.536 21.4909 182.632 21.3338 182.783C21.1767 182.935 21.0736 183.134 21.0402 183.35L20.5402 186.74C20.5062 186.963 20.549 187.192 20.6616 187.388C20.7742 187.584 20.9499 187.737 21.1602 187.82L22.3402 188.29C22.5067 188.357 22.6521 188.467 22.7612 188.61C22.8703 188.752 22.939 188.922 22.9602 189.1C23.0275 189.542 23.121 189.979 23.2402 190.41C23.2865 190.557 23.2979 190.714 23.2736 190.866C23.2493 191.019 23.19 191.164 23.1002 191.29L22.3002 192.37C22.168 192.544 22.0964 192.756 22.0964 192.975C22.0964 193.193 22.168 193.406 22.3002 193.58L24.4102 196.28C24.5476 196.457 24.7406 196.583 24.9582 196.638C25.1759 196.692 25.4055 196.672 25.6102 196.58L26.3702 196.24C26.5317 196.168 26.7093 196.141 26.885 196.16C27.0607 196.179 27.2281 196.245 27.3702 196.35C27.8767 196.73 28.4154 197.064 28.9802 197.35C29.1252 197.418 29.2517 197.52 29.3491 197.647C29.4466 197.774 29.5121 197.922 29.5402 198.08L29.7002 198.93C29.7381 199.144 29.8444 199.339 30.0031 199.487C30.1618 199.635 30.3644 199.727 30.5802 199.75L34.0002 200C34.2264 200.023 34.4538 199.968 34.6446 199.844C34.8355 199.721 34.9786 199.536 35.0502 199.32L35.2302 198.8C35.2924 198.634 35.3956 198.486 35.5302 198.371C35.6649 198.255 35.8265 198.176 36.0002 198.14C36.6855 197.999 37.3554 197.791 38.0002 197.52C38.1519 197.452 38.3182 197.422 38.484 197.434C38.6499 197.447 38.8102 197.5 38.9502 197.59L39.5002 197.95C39.6828 198.071 39.9001 198.129 40.1187 198.114C40.3373 198.1 40.5451 198.014 40.7102 197.87L43.3002 195.64C43.472 195.493 43.5893 195.293 43.6328 195.072C43.6764 194.85 43.6438 194.62 43.5402 194.42L43.2402 193.84C43.1524 193.688 43.1062 193.515 43.1062 193.34C43.1062 193.164 43.1524 192.992 43.2402 192.84C43.5697 192.271 43.8443 191.671 44.0602 191.05C44.1146 190.886 44.2105 190.74 44.3384 190.624C44.4663 190.508 44.6219 190.428 44.7902 190.39L45.6102 190.2C45.8425 190.172 46.0577 190.064 46.2185 189.894C46.3793 189.724 46.4754 189.503 46.4902 189.27ZM33.8202 193C32.7087 193 31.6221 192.67 30.6979 192.053C29.7737 191.435 29.0534 190.557 28.628 189.531C28.2026 188.504 28.0913 187.374 28.3082 186.283C28.525 185.193 29.0603 184.192 29.8462 183.406C30.6322 182.62 31.6336 182.085 32.7238 181.868C33.814 181.651 34.9439 181.762 35.9709 182.188C36.9978 182.613 37.8755 183.333 38.493 184.258C39.1106 185.182 39.4402 186.268 39.4402 187.38C39.4402 188.87 38.8481 190.3 37.7941 191.354C36.7402 192.408 35.3107 193 33.8202 193Z" fill="#825ADC"/>
<path d="M301.89 124.31C302.862 123.418 303.556 122.266 303.89 120.99C304.101 120.339 304.056 119.633 303.764 119.014C303.472 118.396 302.956 117.911 302.32 117.66H302.08C295.873 115.1 289.54 112.847 283.08 110.9C283.35 110.28 282.77 109.39 281.99 109.76C281.151 110.161 280.465 110.826 280.039 111.653C279.613 112.48 279.469 113.424 279.63 114.34C279.031 114.632 278.497 115.041 278.058 115.543C277.619 116.044 277.285 116.629 277.076 117.261C276.866 117.894 276.785 118.562 276.837 119.226C276.889 119.891 277.074 120.538 277.38 121.13C276.946 121.554 276.621 122.076 276.431 122.652C276.241 123.228 276.193 123.841 276.29 124.44C276.6 125.895 277.464 127.172 278.7 128C278.415 128.758 278.288 129.565 278.328 130.374C278.368 131.182 278.572 131.974 278.93 132.7C279.903 134.518 281.46 135.955 283.35 136.78C285.182 137.777 287.313 138.078 289.35 137.63C290.136 137.428 290.865 137.048 291.481 136.519C292.096 135.99 292.582 135.327 292.9 134.58C294.404 134.723 295.913 134.353 297.18 133.53C298.43 132.8 299.5 131.61 299.29 130.26C300.373 129.573 301.207 128.556 301.67 127.36C301.916 126.895 302.063 126.383 302.1 125.858C302.138 125.333 302.067 124.806 301.89 124.31Z" fill="#30ABC8"/>
<path d="M323.2 96.4001C323.162 95.4918 323.028 94.5901 322.8 93.7101C322.476 89.3439 320.818 85.1827 318.05 81.7901C315.379 78.6066 311.975 76.1188 308.13 74.5401C304.198 72.8344 299.966 71.9268 295.68 71.8701C293.585 71.8679 291.522 72.3905 289.68 73.3901C287.764 74.3926 285.934 75.5533 284.21 76.8601C279.539 80.4886 276.457 85.788 275.614 91.6428C274.771 97.4975 276.232 103.451 279.69 108.25C280.232 108.999 280.82 109.714 281.45 110.39C281.528 110.482 281.624 110.555 281.733 110.605C281.842 110.655 281.96 110.681 282.08 110.68L282.26 110.77L302.55 118.77C302.665 118.82 302.791 118.842 302.916 118.833C303.042 118.825 303.163 118.786 303.27 118.72C303.443 118.807 303.642 118.829 303.83 118.78C308.808 117.475 313.315 114.788 316.83 111.03C320.36 107.18 323.41 101.78 323.2 96.4001Z" fill="#825ADC"/>
<path d="M302.76 117.61L299.26 116.24C301.495 114.244 303.432 111.937 305.01 109.39C307.02 106.438 308.537 103.179 309.5 99.7399C310.21 96.7399 309.78 93.3099 307.44 91.1099C306.402 90.1961 305.101 89.6358 303.724 89.51C302.347 89.3842 300.966 89.6993 299.78 90.4099C299.273 89.5684 298.597 88.8409 297.795 88.273C296.993 87.7051 296.082 87.3092 295.12 87.1099C291.92 86.5599 289 88.7999 287.48 91.4299C285.708 94.7012 284.77 98.3594 284.75 102.08C284.652 105.271 285.339 108.436 286.75 111.3L282.67 109.7C282.464 109.632 282.239 109.646 282.043 109.738C281.846 109.831 281.693 109.995 281.613 110.197C281.534 110.399 281.535 110.624 281.616 110.825C281.698 111.027 281.853 111.189 282.05 111.28L297.11 117.2C297.25 117.312 297.421 117.378 297.6 117.39L302.19 119.19C302.389 119.228 302.595 119.195 302.772 119.095C302.948 118.994 303.083 118.835 303.151 118.644C303.22 118.453 303.219 118.244 303.147 118.055C303.075 117.865 302.938 117.707 302.76 117.61ZM299.18 93.0899C299.31 93.4662 299.4 93.8549 299.45 94.2499C299.571 94.7859 299.551 95.3443 299.392 95.8703C299.232 96.3962 298.939 96.8716 298.54 97.2499C298.23 97.4799 297.71 97.7099 297.63 97.2499C297.594 96.5672 297.706 95.8847 297.96 95.2499C298.233 94.4619 298.646 93.73 299.18 93.0899ZM288.7 111.46C286.1 106.98 285.91 101.52 287.25 96.5999C287.95 93.9999 289.02 91.1299 291.4 89.5999C292.382 88.9395 293.563 88.6424 294.74 88.7599C296.023 88.9854 297.168 89.703 297.93 90.7599C298.101 90.9692 298.258 91.1897 298.4 91.4199C297.499 92.2971 296.814 93.3721 296.4 94.5599C296 95.7399 295.4 97.8399 296.56 98.7699C297.72 99.6999 299.46 98.9499 300.27 97.8699C300.672 97.2731 300.95 96.6022 301.089 95.8965C301.228 95.1908 301.225 94.4644 301.08 93.7599C300.971 93.1149 300.79 92.4843 300.54 91.8799C301.497 91.283 302.632 91.0411 303.749 91.1964C304.866 91.3518 305.893 91.8945 306.65 92.7299C308.34 94.7299 308.38 97.5299 307.65 99.9299C306.653 103.028 305.219 105.968 303.39 108.66C301.771 111.251 299.745 113.564 297.39 115.51L288.69 112.09C288.745 111.994 288.775 111.886 288.776 111.776C288.778 111.666 288.752 111.557 288.7 111.46Z" fill="#194067"/>
<path d="M300.59 123.11L280.46 115.2C280.254 115.132 280.029 115.146 279.833 115.238C279.636 115.331 279.483 115.495 279.403 115.697C279.324 115.899 279.325 116.124 279.406 116.325C279.488 116.527 279.643 116.689 279.84 116.78L300 124.69C300.202 124.737 300.413 124.71 300.596 124.612C300.778 124.515 300.919 124.354 300.991 124.16C301.064 123.966 301.063 123.752 300.989 123.559C300.915 123.366 300.773 123.206 300.59 123.11Z" fill="white"/>
<path d="M298.43 128.61L278.3 120.7C278.094 120.632 277.869 120.646 277.673 120.738C277.476 120.831 277.323 120.995 277.243 121.197C277.164 121.399 277.165 121.624 277.246 121.825C277.327 122.027 277.483 122.189 277.68 122.28L297.81 130.19C298.016 130.258 298.241 130.244 298.437 130.152C298.634 130.059 298.787 129.895 298.867 129.693C298.946 129.491 298.945 129.266 298.864 129.065C298.782 128.863 298.627 128.701 298.43 128.61Z" fill="white"/>
<path d="M292.87 132.78L279.54 127.54C278.87 127.27 278.24 128.85 278.92 129.12L292.25 134.36C292.92 134.62 293.54 133 292.87 132.78Z" fill="white"/>
<path d="M67.0003 77.58C68.1597 78.2478 69.4984 78.5379 70.8302 78.41C74.3202 78.41 77.8303 78.25 81.2903 78.17C81.8603 78.17 82.3903 77.38 81.9803 76.88L81.8903 76.77C82.5303 76.77 83.1803 76.16 82.7003 75.52C80.8736 73.06 78.9769 70.65 77.0103 68.29C76.7703 68 76.5203 67.71 76.2503 67.44L75.8203 66.8C75.7272 66.6559 75.5912 66.5446 75.4316 66.4818C75.2719 66.4191 75.0966 66.4079 74.9302 66.45C74.6177 66.2849 74.2797 66.1733 73.9302 66.12C73.3389 66.015 72.7295 66.1008 72.1902 66.3651C71.6509 66.6294 71.2096 67.0584 70.9302 67.59C70.2902 68.74 70.2802 70.13 69.7102 71.31C69.4055 71.9514 69.0079 72.5445 68.5303 73.07C68.0603 73.57 67.5303 73.94 67.0103 74.42C66.7688 74.6062 66.5731 74.8451 66.4381 75.1186C66.3031 75.392 66.2324 75.6927 66.2315 75.9976C66.2305 76.3025 66.2993 76.6036 66.4325 76.8779C66.5658 77.1521 66.76 77.3923 67.0003 77.58Z" fill="white"/>
<path d="M15.23 46.63C15.6506 46.8402 16.1305 46.9002 16.59 46.8C16.9469 47.5164 17.5387 48.0888 18.2666 48.4219C18.9945 48.7549 19.8145 48.8283 20.59 48.63C20.6997 49.221 21.0021 49.759 21.45 50.16C21.8171 50.4826 22.2606 50.7062 22.7383 50.8095C23.2161 50.9127 23.7123 50.8922 24.18 50.75C24.2746 50.8276 24.3855 50.8831 24.5044 50.9124C24.6233 50.9416 24.7473 50.9438 24.8672 50.9189C24.987 50.894 25.0998 50.8425 25.1972 50.7683C25.2946 50.694 25.3741 50.5989 25.43 50.49C27.1033 47.3766 28.77 44.2666 30.43 41.16C31.03 40.04 31.93 38.68 31.14 37.42C30.8397 36.9878 30.4225 36.6501 29.9372 36.4465C29.452 36.2428 28.9187 36.1816 28.4 36.27C28.2626 35.8366 28.0358 35.4368 27.7342 35.0966C27.4327 34.7563 27.0631 34.4831 26.6493 34.2946C26.2356 34.1061 25.7869 34.0065 25.3323 34.0023C24.8776 33.998 24.4272 34.0892 24.01 34.27C23.6715 33.7651 23.1709 33.3907 22.5909 33.2089C22.0108 33.0271 21.3861 33.0486 20.82 33.27C19.8493 33.6785 19.0285 34.3771 18.47 35.27C17.77 36.27 17.14 37.27 16.54 38.27C15.94 39.27 15.38 40.41 14.85 41.5C14.3323 42.367 14.0242 43.3429 13.95 44.35C13.9387 44.81 14.0517 45.2645 14.2769 45.6657C14.5022 46.0669 14.8314 46.4 15.23 46.63Z" fill="#30ABC8"/>
<path d="M74.5498 65.6899L31.5598 38.4399L25.0298 51.3399L67.5198 78.5199L66.1998 73.7999L71.6598 72.7299L71.0198 67.5299L74.5498 65.6899Z" fill="#825ADC"/>
<path d="M26.4602 49.7401C28.1202 46.2601 29.9135 42.8567 31.8402 39.5301C32.3802 38.5301 30.8402 37.8001 30.3302 38.7401C28.4102 42.0701 26.6102 45.4801 24.9602 48.9501C24.4902 49.9301 26.0002 50.7301 26.4602 49.7401Z" fill="white"/>
<path d="M22.5798 47.65C24.155 44.1753 26.0042 40.8314 28.1098 37.65C28.7098 36.74 27.1998 35.96 26.6098 36.86C24.5045 40.0416 22.6553 43.3855 21.0798 46.86C20.6298 47.85 22.1298 48.64 22.5798 47.65Z" fill="white"/>
<path d="M18.3902 45.6501C20.3774 42.3972 22.1737 39.0315 23.7702 35.5701C24.2202 34.5701 22.7702 33.7901 22.2702 34.7801C20.6698 38.2428 18.8736 41.6116 16.8902 44.8701C16.3202 45.8001 17.8202 46.5801 18.3902 45.6501Z" fill="white"/>
<path d="M79.8798 78.62C80.9635 78.954 82.0972 79.0961 83.2298 79.04C83.4213 78.9913 83.6006 78.9035 83.7564 78.782C83.9123 78.6605 84.0412 78.508 84.1352 78.3342C84.2292 78.1604 84.2861 77.9689 84.3023 77.772C84.3186 77.5751 84.2939 77.3769 84.2298 77.19C83.4698 76.37 82.6998 75.56 81.9398 74.75C81.8065 74.6277 81.6377 74.551 81.4578 74.5312C81.2779 74.5114 81.0965 74.5496 80.9398 74.64C80.4346 75.0043 80.0215 75.4814 79.7333 76.0335C79.4451 76.5856 79.2898 77.1974 79.2798 77.8201C79.2854 77.9989 79.346 78.1717 79.4534 78.3149C79.5607 78.458 79.7096 78.5646 79.8798 78.62Z" fill="#194067"/>
<path d="M13.56 44.7899C13.76 44.8869 13.9896 44.9037 14.2016 44.8367C14.4136 44.7698 14.592 44.6242 14.7 44.4299C16.4333 41.0099 18.27 37.6432 20.21 34.3299C20.2151 34.0278 20.1592 33.7278 20.0458 33.4478C19.9324 33.1677 19.7638 32.9134 19.55 32.6999C15.91 30.6199 10.75 29.8699 8.07001 33.8399C5.21001 38.0899 9.86 43.0499 13.56 44.7899Z" fill="#907FF7"/>
<path d="M95.3099 14.46C92.9099 15.03 90.3699 15.59 88.6699 17.85C88.4903 18.1817 88.3805 18.5468 88.3475 18.9226C88.3145 19.2984 88.3588 19.677 88.4779 20.035C88.5969 20.3929 88.788 20.7227 89.0395 21.004C89.2909 21.2852 89.5974 21.5119 89.9399 21.67C92.992 23.123 96.4915 23.324 99.6899 22.23C110.69 19.08 120.96 14.86 131.64 11L126.64 3C120.79 5.5 114.84 7.71 108.88 10.13C104.487 11.9538 99.9473 13.4023 95.3099 14.46Z" fill="#825ADC"/>
<path d="M131.81 11.2801L131.64 11.0001C120.96 14.8601 110.64 19.0801 99.6899 22.2301C96.4915 23.3241 92.992 23.1231 89.9399 21.6701C89.5974 21.5119 89.2909 21.2853 89.0394 21.0041C88.788 20.7228 88.5968 20.393 88.4778 20.0351C88.3588 19.6771 88.3145 19.2985 88.3475 18.9227C88.3805 18.5469 88.4902 18.1818 88.6699 17.8501C90.3699 15.5901 92.9099 15.0301 95.3099 14.4601C99.9454 13.3857 104.482 11.9204 108.87 10.0801C114.87 7.6601 120.78 5.4501 126.63 2.9501L125.33 0.850098C125.33 0.850098 104.09 8.5601 93.3799 11.9401C82.6699 15.3201 85.4899 22.0901 85.4899 22.0901C85.4899 22.0901 93.5699 61.9201 96.3899 69.0901C99.2099 76.2601 109.52 72.5701 109.52 72.5701L143.6 61.3701L131.81 11.2801Z" fill="#30ABC8"/>
<path d="M130.51 10.8699C125.37 13.0999 120.09 15.0199 114.77 16.7699C112.16 17.6299 109.53 18.4499 106.9 19.2499C104.27 20.0499 101.66 20.8999 98.9902 21.5099C97.4109 21.9037 95.7879 22.0952 94.1603 22.0799L119.94 13.2099L127.82 10.4999C128.82 10.1399 128.4 8.49992 127.37 8.85992L100 18.2899L92.1102 20.9999C91.9545 21.0482 91.8165 21.1413 91.7133 21.2676C91.6102 21.3938 91.5465 21.5477 91.5303 21.7099L91.2402 21.6299C90.6319 21.4644 90.0614 21.1825 89.5603 20.7999C99.3669 17.6999 109.114 14.3966 118.8 10.8899C121.567 9.88992 124.337 8.86992 127.11 7.82992C128.11 7.44992 127.68 5.82992 126.65 6.18992C116.884 9.84992 107.054 13.3099 97.1603 16.5699C94.4203 17.4699 91.6802 18.3599 88.9302 19.2199C89.0858 18.7844 89.3333 18.3874 89.656 18.0561C89.9787 17.7248 90.3689 17.4669 90.8002 17.2999C92.0436 16.7436 93.3154 16.2529 94.6102 15.8299L98.7102 14.2999L106.78 11.2999L125.17 4.44992C126.17 4.06992 125.75 2.44992 124.72 2.81992L107 9.40992L98.2702 12.6699L93.7702 14.3399C92.4343 14.7793 91.1254 15.2969 89.8503 15.8899C87.6903 16.9999 86.2302 19.6699 88.1202 21.7399C89.8002 23.5799 92.9403 23.8799 95.2803 23.7399C95.9203 23.7399 96.5703 23.6399 97.2003 23.5399C99.8669 36.0799 102.504 48.6166 105.11 61.1499C105.87 64.7366 106.627 68.3266 107.38 71.9199C107.6 72.9799 109.24 72.5299 109.01 71.4599L101.01 33.3899L98.8803 23.2399C100.52 22.8999 102.13 22.4199 103.74 21.9399C106.63 21.0799 109.53 20.2099 112.41 19.2899C118.858 17.2796 125.199 14.9432 131.41 12.2899C132.37 11.8999 131.5 10.4399 130.51 10.8699Z" fill="#194067"/>
<path d="M129.38 23.5499C129.09 22.5499 128.78 21.3199 127.81 20.8199L127.65 20.7499C127.63 20.6418 127.587 20.5392 127.524 20.449C127.461 20.3589 127.379 20.2833 127.284 20.2274C127.189 20.1715 127.084 20.1366 126.974 20.1249C126.865 20.1133 126.754 20.1252 126.65 20.1599L123 21.3099C117.313 22.8099 111.647 24.4333 106 26.1799C105.792 26.2385 105.616 26.3757 105.507 26.5624C105.399 26.749 105.368 26.9706 105.42 27.1799C105.294 27.2776 105.2 27.4107 105.15 27.5621C105.1 27.7136 105.097 27.8765 105.14 28.0299L106.14 31.8699C106.38 32.8699 106.53 34.1899 107.72 34.3899C108.254 34.4199 108.789 34.3382 109.29 34.1499L111.03 33.6799L114.78 32.6799C119.693 31.2999 124.567 29.8133 129.4 28.2199C129.575 28.1674 129.73 28.0608 129.841 27.9153C129.952 27.7699 130.015 27.593 130.02 27.4099C129.952 26.1034 129.737 24.8086 129.38 23.5499Z" fill="#907FF7"/>
<path d="M69.0698 236.25L188.76 222.72L231.51 247.72V262.44L150.29 285.44L98.3598 277.97C98.3598 277.97 77.0698 262.72 75.9898 260.97C74.9098 259.22 69.0698 236.25 69.0698 236.25Z" fill="#AFA7FC"/>
<path d="M217.86 255C204.3 259.06 190.653 262.84 176.92 266.34C163.187 269.84 149.397 273.06 135.55 276C127.723 277.653 119.877 279.21 112.01 280.67C110.94 280.87 111.39 282.5 112.46 282.3C126.38 279.713 140.243 276.833 154.05 273.66C167.857 270.487 181.587 267.027 195.24 263.28C202.96 261.167 210.65 258.96 218.31 256.66C218.53 256.6 218.717 256.456 218.831 256.258C218.944 256.06 218.975 255.825 218.915 255.605C218.855 255.385 218.711 255.197 218.513 255.084C218.315 254.97 218.08 254.94 217.86 255Z" fill="#194067"/>
<path d="M174.87 248L139.43 244.34L138.55 203.71L180.23 199.68V98.1L51.52 97.26V205.5L60.54 208.29L106.95 205.5V255.08L150.08 262.41L174.87 254.52V248Z" fill="#30ABC8"/>
<path d="M59.6899 98.08V206.32C59.7126 206.528 59.8114 206.721 59.9674 206.861C60.1233 207.001 60.3254 207.078 60.5349 207.078C60.7444 207.078 60.9466 207.001 61.1025 206.861C61.2585 206.721 61.3573 206.528 61.3799 206.32V98.08C61.3573 97.8717 61.2585 97.6791 61.1025 97.5393C60.9466 97.3994 60.7444 97.322 60.5349 97.322C60.3254 97.322 60.1233 97.3994 59.9674 97.5393C59.8114 97.6791 59.7126 97.8717 59.6899 98.08Z" fill="white"/>
<path d="M173.82 248L151.59 253.8L151.39 253.87C151.293 253.822 151.188 253.792 151.08 253.78C140.814 252.52 130.544 251.187 120.27 249.78C125.89 249.013 131.464 247.977 136.99 246.67C138.05 246.42 137.6 244.79 136.54 245.04C129.485 246.7 122.335 247.929 115.13 248.72V206.32C115.132 206.173 115.094 206.028 115.02 205.9C122.354 205.233 129.687 204.82 137.02 204.66C137.229 204.637 137.421 204.538 137.561 204.383C137.701 204.227 137.778 204.024 137.778 203.815C137.778 203.605 137.701 203.403 137.561 203.247C137.421 203.091 137.229 202.993 137.02 202.97C127.247 203.197 117.507 203.863 107.8 204.97C106.73 205.09 106.71 206.79 107.8 206.67C109.7 206.46 111.61 206.26 113.52 206.09C113.509 206.18 113.509 206.27 113.52 206.36V250.36C113.531 250.534 113.594 250.701 113.701 250.84C113.808 250.978 113.954 251.08 114.12 251.134C114.286 251.188 114.465 251.191 114.632 251.142C114.8 251.093 114.949 250.995 115.06 250.86C124.394 252.127 133.727 253.353 143.06 254.54C145.5 254.84 147.93 255.15 150.37 255.44C150.365 255.5 150.365 255.56 150.37 255.62V260.13C150.37 260.355 150.46 260.572 150.619 260.731C150.779 260.89 150.995 260.98 151.22 260.98C151.446 260.98 151.662 260.89 151.821 260.731C151.981 260.572 152.07 260.355 152.07 260.13V255.62C152.075 255.587 152.075 255.553 152.07 255.52H152.16L174.39 249.73C174.62 249.654 174.81 249.491 174.918 249.275C175.027 249.059 175.046 248.809 174.97 248.58C174.895 248.351 174.731 248.161 174.515 248.052C174.3 247.943 174.05 247.924 173.82 248Z" fill="white"/>
<path d="M69.0698 109.18V194.37C69.07 195.081 69.2153 195.784 69.4968 196.436C69.7783 197.089 70.19 197.677 70.7068 198.165C71.2237 198.653 71.8346 199.03 72.5023 199.273C73.17 199.516 73.8803 199.621 74.5898 199.58L170.06 194C171.37 193.925 172.604 193.358 173.514 192.412C174.424 191.466 174.944 190.212 174.97 188.9L176.66 109.29C176.676 108.596 176.553 107.905 176.298 107.259C176.044 106.613 175.662 106.025 175.177 105.528C174.692 105.032 174.112 104.637 173.472 104.368C172.832 104.098 172.144 103.96 171.45 103.96H74.2898C73.6043 103.96 72.9255 104.095 72.2922 104.357C71.6589 104.62 71.0834 105.004 70.5987 105.489C70.114 105.974 69.7295 106.549 69.4672 107.182C69.2048 107.816 69.0698 108.494 69.0698 109.18Z" fill="white"/>
<path d="M166 151.27C166 150.93 165.66 150.72 165.28 150.63C165.179 150.46 165.03 150.324 164.852 150.239C164.674 150.153 164.475 150.122 164.28 150.15C142.28 150.69 120.28 151.45 98.2798 151.5C92.2798 151.5 86.2298 151.5 80.1998 151.31C79.9797 151.148 79.7133 151.06 79.4398 151.06C79.1662 151.06 78.8999 151.148 78.6798 151.31C77.8593 151.916 77.2364 152.751 76.8894 153.71C76.5424 154.669 76.4869 155.709 76.7298 156.7C76.8598 157.54 76.8298 158.7 77.9698 159.26C78.5865 159.518 79.252 159.637 79.9198 159.61C80.9198 159.61 81.9198 159.61 82.9198 159.61L105.76 159.33C120.92 159.14 136.11 159.15 151.24 158.61C153.366 158.543 155.49 158.453 157.61 158.34C159.61 158.23 161.73 158.2 163.71 157.94C165.69 157.68 166.11 156.75 166.12 155.62C166.15 154.12 166.1 152.69 166 151.27Z" fill="#907FF7"/>
<path d="M165.36 161.2C165.36 160.86 165.02 160.64 164.63 160.56C164.53 160.28 164.19 160.06 163.63 160.07C141.63 160.61 119.63 161.37 97.6298 161.43C91.6298 161.43 85.6031 161.363 79.5498 161.23C79.3264 161.071 79.059 160.986 78.7848 160.986C78.5106 160.986 78.2432 161.071 78.0198 161.23C77.2032 161.839 76.5838 162.675 76.2388 163.633C75.8939 164.591 75.8385 165.63 76.0798 166.62C76.2098 167.47 76.1798 168.62 77.3098 169.19C77.9261 169.448 78.5926 169.564 79.2598 169.53C80.2598 169.53 81.2598 169.53 82.2598 169.53L105.1 169.24C120.25 169.06 135.44 169.06 150.58 168.53C152.7 168.45 154.82 168.357 156.94 168.25C158.94 168.15 161.06 168.11 163.05 167.86C165.04 167.61 165.45 166.66 165.46 165.53C165.5 164 165.45 162.62 165.36 161.2Z" fill="#907FF7"/>
<path d="M165.36 171.54C165.36 171.2 165.02 170.99 164.63 170.9C164.53 170.62 164.19 170.4 163.63 170.41C141.63 170.95 119.63 171.72 97.6301 171.77C91.6301 171.77 85.5701 171.77 79.5501 171.57C79.3267 171.411 79.0593 171.326 78.7851 171.326C78.5109 171.326 78.2435 171.411 78.0201 171.57C77.2026 172.181 76.5828 173.018 76.2379 173.978C75.8929 174.938 75.838 175.979 76.0801 176.97C76.2101 177.81 76.1801 178.97 77.3101 179.53C77.9264 179.788 78.5929 179.904 79.2601 179.87C80.2601 179.87 81.2601 179.87 82.2601 179.87L105.1 179.59C120.25 179.4 135.44 179.4 150.58 178.87C152.7 178.79 154.82 178.697 156.94 178.59C158.94 178.49 161.06 178.45 163.05 178.2C165.04 177.95 165.45 177 165.46 175.88C165.5 174.38 165.45 173 165.36 171.54Z" fill="#907FF7"/>
<path d="M165.36 181.88C165.36 181.54 165.02 181.33 164.63 181.24C164.53 180.97 164.19 180.74 163.63 180.75C141.63 181.29 119.63 182.06 97.6301 182.11C91.6301 182.11 85.5701 182.11 79.5501 181.91C79.3267 181.751 79.0593 181.666 78.7851 181.666C78.5109 181.666 78.2435 181.751 78.0201 181.91C77.2026 182.521 76.5828 183.358 76.2379 184.318C75.8929 185.278 75.838 186.319 76.0801 187.31C76.2101 188.15 76.1801 189.31 77.3101 189.87C77.9271 190.127 78.5924 190.246 79.2601 190.22C80.2601 190.22 81.2601 190.22 82.2601 190.22L105.1 189.94C120.25 189.75 135.44 189.76 150.58 189.22C152.7 189.14 154.82 189.047 156.94 188.94C158.94 188.84 161.06 188.8 163.05 188.55C165.04 188.3 165.45 187.36 165.46 186.23C165.5 184.73 165.45 183.3 165.36 181.88Z" fill="#907FF7"/>
<path d="M167.39 112.87C157.59 113.21 147.783 113.237 137.97 112.95C136.88 112.95 136.88 114.61 137.97 114.65C147.77 114.937 157.577 114.907 167.39 114.56C168.48 114.52 168.48 112.83 167.39 112.87Z" fill="#194067"/>
<path d="M167.39 126.23C157.59 126.583 147.783 126.61 137.97 126.31C137.745 126.31 137.528 126.4 137.369 126.559C137.21 126.718 137.12 126.935 137.12 127.16C137.12 127.385 137.21 127.602 137.369 127.761C137.528 127.92 137.745 128.01 137.97 128.01C147.77 128.303 157.577 128.277 167.39 127.93C168.48 127.89 168.48 126.19 167.39 126.23Z" fill="#194067"/>
<path d="M167.39 132.64C157.59 132.993 147.783 133.02 137.97 132.72C137.745 132.72 137.528 132.81 137.369 132.969C137.21 133.128 137.12 133.345 137.12 133.57C137.12 133.796 137.21 134.012 137.369 134.171C137.528 134.331 137.745 134.42 137.97 134.42C147.77 134.713 157.577 134.687 167.39 134.34C168.48 134.3 168.48 132.6 167.39 132.64Z" fill="#194067"/>
<path d="M167.39 139.05C157.59 139.39 147.783 139.417 137.97 139.13C136.88 139.13 136.88 140.79 137.97 140.83C147.77 141.117 157.577 141.087 167.39 140.74C168.48 140.71 168.48 139 167.39 139.05Z" fill="#194067"/>
<path d="M167.39 119.38C157.59 119.727 147.783 119.757 137.97 119.47C136.88 119.47 136.88 121.13 137.97 121.16C147.77 121.447 157.577 121.42 167.39 121.08C168.48 121 168.48 119.35 167.39 119.38Z" fill="#194067"/>
<path d="M216.34 227.54L194.34 199.79C198.958 192.506 203.965 185.475 209.34 178.73C216.96 169.4 221.19 168.23 229.7 167.59C238.21 166.95 255.23 173.24 262.93 181.22C270.63 189.2 283.8 238.11 283.8 238.11C283.8 238.11 278.8 266.4 214.8 277.9L203.6 238.73L216.34 227.54Z" fill="#825ADC"/>
<path d="M195.58 201L219.92 226.09C219.92 226.09 203.21 254.53 172.2 244.38C172.2 244.38 159.1 239.17 158.11 219.58C157.12 199.99 166.11 168.27 166.11 168.27C166.11 168.27 170.9 153.27 177.67 150.27C184.44 147.27 192.81 150.27 196.37 150.83C198.174 151.056 199.923 151.608 201.53 152.46C201.53 152.46 196.53 146.02 196.18 139.46C195.83 132.9 199.47 123.77 199.75 121.14C200.03 118.51 199.75 116.25 199.84 114.75C199.93 113.25 199.56 110.24 200.22 108.27C200.88 106.3 200.75 104.51 201.99 103.47C203.224 102.392 204.523 101.39 205.88 100.47C206.37 100.27 219.88 118.94 219.88 118.94L224.26 159.71L218.99 158.78C215.971 159.202 212.895 158.942 209.99 158.02L207.36 159.02L204.64 159.49L204.15 159.39C204.15 159.39 204.51 162.49 201.99 163.9C199.47 165.31 194.68 165.03 194.68 165.03C194.68 165.03 190.45 165.31 188.68 166.35C186.91 167.39 183.52 169.45 183.52 169.45C183.52 169.45 187.09 197.35 188.78 206.09L195.58 201Z" fill="white"/>
<path d="M234.61 209.11L220.61 225.5C220.526 225.591 220.464 225.701 220.43 225.82C220.247 225.848 220.081 225.94 219.96 226.08L219.76 226.29C213.987 219.363 208.067 212.557 202 205.87C200.22 203.87 198.44 201.96 196.64 200.02C196.514 199.885 196.343 199.8 196.159 199.781C195.975 199.763 195.79 199.812 195.64 199.92C195.575 199.816 195.486 199.728 195.382 199.663C195.277 199.598 195.159 199.558 195.037 199.545C194.914 199.533 194.791 199.548 194.675 199.591C194.56 199.633 194.455 199.701 194.37 199.79C192.757 201.39 191.127 202.977 189.48 204.55C187.229 194.686 185.632 184.685 184.7 174.61C184.56 173.02 184.43 171.44 184.32 169.85C184.504 169.879 184.693 169.84 184.85 169.74L188.85 167.42C190.015 166.637 191.347 166.137 192.74 165.96C195.55 165.72 198.51 165.78 201.23 164.91C203.31 164.24 205.37 162.29 204.82 160C206.829 160.007 208.82 159.634 210.69 158.9L210.84 158.83C213.665 159.69 216.634 159.972 219.57 159.66C220.64 159.54 220.65 157.84 219.57 157.96C215.139 158.455 210.667 157.487 206.837 155.203C203.008 152.919 200.031 149.444 198.36 145.31C196.7 141.007 196.504 136.277 197.8 131.85C198.49 129.36 199.45 126.94 200.07 124.43C200.643 121.804 200.892 119.117 200.81 116.43C200.81 111.43 200.63 105.37 204.9 101.85C205.74 101.15 204.54 99.9601 203.7 100.65C199.89 103.8 199.16 109.05 199.11 113.65C199.231 116.521 199.12 119.397 198.78 122.25C198.201 124.906 197.45 127.522 196.53 130.08C194.932 134.789 194.869 139.883 196.35 144.63C197.141 147.044 198.342 149.304 199.9 151.31C196.25 150.19 192.58 149 188.84 148.25C184.84 147.45 180.59 147.47 177.03 149.74C173.75 151.84 171.4 155.19 169.49 158.52C167.427 162.259 165.752 166.2 164.49 170.28C161.849 178.977 160.011 187.897 159 196.93C157.89 205.35 156.58 214.05 157.66 222.55C158.66 230.47 162.15 237.85 168.46 242.91C169.2 243.5 169.96 244.06 170.74 244.58L170.92 244.67C174.09 246.56 177.98 247.11 181.58 247.5C185.354 247.915 189.172 247.665 192.86 246.76C200.1 244.97 206.55 240.92 212.16 236.09C215.305 233.322 218.293 230.381 221.11 227.28C221.193 227.19 221.258 227.085 221.3 226.97C221.48 226.935 221.642 226.84 221.76 226.7L235.76 210.31C236.52 209.48 235.32 208.28 234.61 209.11ZM183.5 246C181.342 245.862 179.196 245.568 177.08 245.12C175.134 244.784 173.262 244.107 171.55 243.12L171.46 243.06C168.367 240.937 165.733 238.215 163.712 235.054C161.692 231.893 160.328 228.358 159.7 224.66C158.2 216.66 159.29 208.43 160.26 200.46C161.189 191.76 162.774 183.142 165 174.68C166.071 170.678 167.473 166.771 169.19 163C170.737 159.43 172.881 156.15 175.53 153.3C176.942 151.82 178.697 150.711 180.64 150.07C182.819 149.484 185.102 149.396 187.32 149.81C189.592 150.227 191.837 150.785 194.04 151.48L201.62 153.71C201.752 153.739 201.888 153.739 202.02 153.71C202.84 154.494 203.719 155.213 204.65 155.86C205.812 156.64 207.044 157.31 208.33 157.86C207.07 158.165 205.776 158.306 204.48 158.28C204.327 158.268 204.173 158.303 204.04 158.38C202.76 156.9 200.44 156.25 198.75 155.54L189.14 151.54C189.029 151.497 188.911 151.477 188.792 151.483C188.673 151.488 188.556 151.519 188.45 151.572C188.344 151.625 188.25 151.7 188.174 151.792C188.099 151.884 188.043 151.991 188.011 152.106C187.98 152.22 187.973 152.34 187.99 152.458C188.008 152.576 188.05 152.688 188.114 152.789C188.178 152.889 188.262 152.975 188.362 153.041C188.461 153.106 188.573 153.15 188.69 153.17L196.25 156.35L200.09 157.97C201.025 158.285 201.891 158.777 202.64 159.42C202.999 159.754 203.213 160.214 203.238 160.704C203.262 161.193 203.094 161.673 202.77 162.04C201.945 162.913 200.835 163.459 199.64 163.58C198.364 163.82 197.075 163.99 195.78 164.09C194.5 164.19 193.21 164.19 191.94 164.37C190.532 164.649 189.193 165.203 188 166L184.18 168.21C184.12 167.33 184.07 166.46 184.02 165.58C183.97 164.5 182.27 164.49 182.33 165.58C182.886 176.324 184.189 187.017 186.23 197.58C186.77 200.4 187.38 203.2 188.03 206C183.41 210.353 178.673 214.573 173.82 218.66C172.99 219.36 174.19 220.55 175.02 219.85C182.06 213.937 188.847 207.737 195.38 201.25L195.44 201.32C201.7 208.073 207.81 214.957 213.77 221.97C215.357 223.85 216.94 225.74 218.52 227.64C209.29 237.31 197.74 246.77 183.5 246Z" fill="#194067"/>
<path d="M206.34 123.64C206.34 122.43 206.02 120.55 204.53 120.38C203.04 120.21 202.21 121.73 202.05 123C201.99 123.425 201.99 123.855 202.05 124.28C202.05 124.43 202.05 124.56 202.1 124.7C202.066 125.06 202.106 125.423 202.218 125.767C202.33 126.111 202.511 126.429 202.75 126.7C202.893 126.875 203.078 127.012 203.288 127.097C203.497 127.183 203.725 127.215 203.95 127.19C204.209 127.26 204.481 127.26 204.74 127.19C206.07 126.8 206.35 124.76 206.34 123.64Z" fill="#194067"/>
<path d="M273.77 172.15C273.965 169.749 274.025 167.338 273.95 164.93C273.794 161.602 273.195 158.31 272.17 155.14C271.17 151.93 269.88 148.79 268.69 145.63L265 135.86L261.4 126.32C259.27 117.83 256.84 109.1 250.99 102.32C245.162 95.7948 237.163 91.6085 228.48 90.54C223.587 89.9182 218.623 90.1517 213.81 91.23C211.467 91.716 209.177 92.4259 206.97 93.35C204.896 94.1362 203.179 95.6504 202.14 97.61C201.693 98.5432 201.503 99.5789 201.59 100.61C201.593 100.758 201.633 100.902 201.708 101.029C201.783 101.157 201.889 101.263 202.017 101.337C202.144 101.412 202.289 101.452 202.437 101.454C202.584 101.456 202.73 101.42 202.86 101.35L204.19 100.75C204.93 104.739 206.38 108.563 208.47 112.04C210.75 115.83 214.17 118.92 215.85 123.04C216.398 124.43 216.823 125.866 217.12 127.33C217.7 138.68 213.83 150.45 217.89 161.47C218.7 163.615 219.768 165.653 221.07 167.54C221.714 170.985 222.654 174.367 223.88 177.65C225.155 181.284 227.144 184.626 229.73 187.48C231.016 188.839 232.507 189.986 234.15 190.88C236.15 191.96 238.37 192.52 240.36 193.59C242.24 194.715 244.038 195.971 245.74 197.35C250.828 201.118 257.125 202.88 263.43 202.3C264.478 202.2 265.52 202.04 266.55 201.82C266.651 201.803 266.748 201.764 266.834 201.708C266.919 201.651 266.992 201.577 267.048 201.49C267.103 201.404 267.14 201.306 267.156 201.205C267.172 201.103 267.166 200.999 267.14 200.9C267.306 200.814 267.439 200.674 267.517 200.504C267.595 200.334 267.613 200.142 267.57 199.96C266.83 196.44 266.093 192.917 265.36 189.39C265.812 190.034 266.229 190.702 266.61 191.39C267.06 192.21 267.47 193.05 267.87 193.9C268.04 194.28 268.23 194.66 268.39 195.04C268.455 195.184 268.502 195.335 268.53 195.49C268.58 195.75 268.53 195.76 268.61 195.7C267.71 196.13 268.15 197.7 269.15 197.3C269.424 197.223 269.671 197.069 269.861 196.857C270.05 196.644 270.175 196.381 270.22 196.1C274.03 193.03 275.7 188 275.74 183.23C275.655 179.458 274.991 175.721 273.77 172.15ZM219.68 161.54C218.476 158.281 217.831 154.843 217.77 151.37C217.73 147.105 217.94 142.841 218.4 138.6C218.69 142.6 218.89 146.65 219.16 150.68C219.43 154.71 219.74 158.89 220.31 162.99C220.08 162.52 219.87 162 219.68 161.54ZM269.89 160.32L269.38 158.32C267.9 152.38 266.417 146.44 264.93 140.5L266.5 144.67C268.83 150.84 271.69 157.08 272.18 163.74C272.27 165.03 272.3 166.33 272.28 167.63C272.05 166.94 271.83 166.26 271.6 165.58L269.89 160.32Z" fill="#30ABC8"/>
<path d="M272.92 192.61C270.97 179.99 267.3 167.74 263.71 155.51C260.12 143.28 256.62 130.81 252.82 118.51C250.998 112.38 248.756 106.382 246.11 100.56L246.88 100.97C247.071 101.054 247.287 101.065 247.486 101.001C247.685 100.936 247.853 100.801 247.958 100.62C248.063 100.439 248.098 100.226 248.056 100.022C248.014 99.8168 247.898 99.6347 247.73 99.51C245.215 98.0818 242.414 97.2281 239.53 97.01C239.411 96.9882 239.289 96.9882 239.17 97.01C239.066 96.9108 238.939 96.8387 238.8 96.8C237.71 96.49 236.6 96.21 235.48 95.97C235.49 95.8903 235.49 95.8097 235.48 95.73C235.432 95.3746 235.458 95.0131 235.558 94.6687C235.658 94.3242 235.829 94.0045 236.06 93.73C236.172 93.535 236.203 93.3034 236.145 93.0859C236.087 92.8685 235.945 92.6829 235.75 92.57C235.554 92.4628 235.324 92.4351 235.108 92.4928C234.892 92.5506 234.707 92.6892 234.59 92.88C233.985 93.6822 233.697 94.6789 233.78 95.68C230.868 95.169 227.917 94.9114 224.96 94.91C224.949 94.7957 224.919 94.684 224.87 94.58C224.63 94.072 224.5 93.5192 224.488 92.9575C224.476 92.3958 224.582 91.8379 224.8 91.32C225.19 90.32 223.55 89.86 223.16 90.87C222.65 92.1787 222.65 93.6314 223.16 94.94L221.78 95.01C221.469 94.481 221.309 93.8767 221.318 93.263C221.326 92.6493 221.504 92.0498 221.83 91.53C222.4 90.6 220.93 89.75 220.36 90.68C219.951 91.3432 219.703 92.0927 219.635 92.8688C219.568 93.6449 219.682 94.4261 219.97 95.15C217.077 95.4308 214.213 95.9594 211.41 96.73C210.31 97.03 209.22 97.38 208.15 97.73C207.807 97.2691 207.621 96.7097 207.621 96.135C207.621 95.5603 207.807 95.0009 208.15 94.54C208.78 93.64 207.31 92.79 206.69 93.68C206.222 94.3611 205.959 95.1621 205.932 95.988C205.906 96.814 206.117 97.6303 206.54 98.34C205.69 98.67 204.85 99.03 204.02 99.41C203.02 99.86 203.89 101.32 204.87 100.87C206.954 99.9283 209.103 99.1363 211.3 98.5C211.29 98.5596 211.29 98.6204 211.3 98.68C211.78 104.68 216.73 108.68 220.3 113.08C223.996 117.827 226.838 123.18 228.7 128.9C230.619 134.78 232.09 140.798 233.1 146.9C234.36 153.84 235.48 160.81 236.65 167.77L240.85 192.7C241.04 193.77 242.67 193.31 242.49 192.24C240.05 177.78 237.68 163.3 235.16 148.85C233.1 137 230.52 124.66 223.55 114.6C221.67 111.9 219.41 109.54 217.28 107.04C215.15 104.54 213.28 101.91 213.01 98.67C212.995 98.4527 212.899 98.249 212.74 98.1C213.62 97.88 214.5 97.68 215.38 97.51C215.376 97.5633 215.376 97.6168 215.38 97.67C216.16 100.546 217.59 103.204 219.56 105.44C221.56 107.9 223.66 110.19 225.47 112.77C229.189 118.206 232.134 124.133 234.22 130.38C236.458 137.165 238.202 144.103 239.44 151.14C240.81 158.38 242.03 165.64 243.3 172.9L247.68 197.78C247.87 198.85 249.5 198.4 249.31 197.33C246.73 182.63 244.22 167.92 241.55 153.25C239.09 139.79 235.93 126.09 228.55 114.37C226.594 111.368 224.425 108.511 222.06 105.82C219.89 103.27 217.75 100.56 217 97.22C221.607 96.4704 226.295 96.3694 230.93 96.92C233.437 97.2333 235.914 97.7449 238.34 98.45C238.462 98.473 238.588 98.473 238.71 98.45C238.666 98.5528 238.644 98.6633 238.644 98.775C238.644 98.8867 238.666 98.9973 238.71 99.1C243.668 110.069 247.777 121.402 251 133C254.3 144.52 257 156.19 259.78 167.86C261.433 174.84 263.08 181.823 264.72 188.81C264.97 189.87 266.61 189.42 266.36 188.36C263.49 176.2 260.69 164.02 257.72 151.88C254.85 140.2 251.72 128.55 247.78 117.18C245.62 110.97 243.2 104.84 240.46 98.86C241.608 99.0104 242.737 99.2784 243.83 99.66C243.847 99.7539 243.877 99.8448 243.92 99.93C249.41 111.12 252.5 123.33 256 135.24C259.62 147.58 263.42 159.89 266.76 172.32C268.648 179.155 270.161 186.089 271.29 193.09C271.45 194.14 273.08 193.68 272.92 192.61Z" fill="white"/>
<path d="M210 133.53C209.489 132.766 208.82 132.121 208.039 131.638C207.257 131.155 206.381 130.845 205.47 130.73C204.486 130.626 203.494 130.807 202.61 131.25C198.75 132.2 198.31 137.07 198.55 140.36C198.81 143.9 200.32 147.75 203.88 149.11C204.714 149.438 205.612 149.572 206.506 149.503C207.4 149.433 208.266 149.162 209.04 148.71C210.468 147.716 211.454 146.207 211.79 144.5C212.278 142.648 212.371 140.714 212.063 138.824C211.755 136.934 211.052 135.13 210 133.53Z" fill="#825ADC"/>
<path d="M128 121.804L101.5 131.608L75 121.804L101.5 112L128 121.804Z" fill="#30ABC8"/>
<path d="M101.5 133.212L83.8315 126.679V136.877C83.8315 137.967 91.7363 143.531 101.5 143.531C111.264 143.531 119.169 137.972 119.169 136.877V126.679L101.5 133.212Z" fill="#30ABC8"/>
<path d="M124.223 135.917C124.693 135.907 125.14 135.727 125.465 135.417C125.79 135.107 125.966 134.693 125.956 134.264C125.959 133.93 125.852 133.603 125.646 133.326C125.441 133.049 125.149 132.835 124.807 132.713V124.604L123.749 124.992V132.67C123.378 132.776 123.055 132.988 122.828 133.276C122.601 133.563 122.483 133.91 122.491 134.264C122.481 134.692 122.658 135.107 122.982 135.417C123.307 135.727 123.753 135.907 124.223 135.917V135.917Z" fill="#072138"/>
<path d="M125.955 135.917C124.223 137.297 122.49 135.866 122.49 135.866C122.134 137.114 121.882 138.384 121.735 139.666C121.625 141.202 122.437 142.625 122.221 143.907C122.051 145.112 122.146 146.336 122.501 147.508C122.782 148.296 123.316 147.902 123.316 147.902C123.138 147.743 123.024 147.535 122.99 147.31C122.99 147.014 123.695 147.055 123.695 147.055V147.891C123.695 147.891 124.127 147.891 124.234 147.592C124.341 147.293 124.984 147.316 124.984 147.316L125.265 146.379C125.333 146.654 125.369 146.934 125.371 147.216C125.371 147.661 125.86 147.809 126.236 147.216C127.525 142.179 126.388 137.335 125.955 135.917Z" fill="#072138"/>
<g opacity="0.15">
<path opacity="0.15" d="M101.5 131.728L128 121.924L107.725 114.424L96.1533 129.75L101.5 131.728Z" fill="#F5F5F5"/>
<path opacity="0.15" d="M95.218 131.004L88.1978 140.314C91.4355 141.993 96.2008 143.641 101.522 143.641C111.289 143.641 119.191 138.085 119.191 136.987V126.799L101.5 133.33L95.218 131.004Z" fill="#F5F5F5"/>
</g>
<path d="M293.26 178.44C293.169 173.244 295.007 168.199 298.42 164.28C304.18 157.56 317.26 158.76 320.26 174.96C320.26 174.96 329.26 173.64 328.06 182.96C328.06 182.96 333.46 182.12 333.94 185.24C334.42 188.36 330.82 192.56 316.3 188.84C316.3 188.84 306.46 200.24 294.46 188.96C294.46 188.96 287.86 192.96 286.06 187.04C284.26 181.12 288.46 178.2 293.26 178.44Z" fill="#907FF7"/>
<path d="M250.25 56.2599C250.19 52.5529 251.504 48.9548 253.94 46.1599C258.05 41.3599 267.39 42.2199 269.53 53.7799C269.53 53.7799 275.95 52.8399 275.1 59.5199C275.1 59.5199 278.95 58.9199 279.29 61.1499C279.63 63.3799 277.07 66.3699 266.7 63.7199C266.7 63.7199 259.7 71.8599 251.11 63.7999C251.11 63.7999 246.4 66.6299 245.11 62.4299C243.82 58.2299 246.83 56.0899 250.25 56.2599Z" fill="#907FF7"/>
<path d="M45.33 243.06C45.216 236.492 47.5388 230.116 51.85 225.16C59.13 216.67 75.66 218.16 79.46 238.66C79.46 238.66 90.83 236.99 89.31 248.82C89.31 248.82 96.14 247.76 96.75 251.71C97.36 255.66 92.8 260.96 74.45 256.26C74.45 256.26 62.01 270.67 46.85 256.41C46.85 256.41 38.5 261.41 36.23 253.98C33.96 246.55 39.26 242.76 45.33 243.06Z" fill="#907FF7"/>
</svg>
