<svg width="117" height="114" viewBox="0 0 117 114" fill="none" xmlns="http://www.w3.org/2000/svg">
<path d="M115.052 49.3414C116.221 49.3414 117 48.5809 117 47.44V39.8344C117 38.8837 116.416 38.3133 115.636 37.933L59.5323 0.285211C58.9479 -0.0950702 57.9738 -0.0950702 57.3894 0.285211L1.09054 38.1231C0.895732 38.3133 0.700926 38.3133 0.50612 38.5034C-0.0782971 38.8837 -0.0782971 39.6443 0.116509 40.4048V47.44C0.116509 48.5809 0.895732 49.3414 2.06457 49.3414H4.01262V102.581H2.06457C0.895732 102.581 0.116509 103.341 0.116509 104.482V112.088C0.116509 113.229 0.895732 113.989 2.06457 113.989H29.3374H87.7791H115.052C116.221 113.989 117 113.229 117 112.088V104.482C117 103.341 116.221 102.581 115.052 102.581H113.104V49.3414H115.052ZM113.104 45.5386H111.156H91.6752H89.7272V41.7358H113.104V45.5386ZM89.7272 53.1442H79.9869V56.947H89.7272V74.0597H79.9869V77.8625H89.7272V93.0737H74.1427V77.8625C74.1427 69.3062 67.3245 62.6512 58.5583 62.6512C49.792 62.6512 42.9738 69.3062 42.9738 77.8625V93.0737H27.3893V87.3695H37.1296V83.5667H27.3893V62.6512H37.1296V58.8484H27.3893V49.3414H29.3374C30.5062 49.3414 31.2854 48.5809 31.2854 47.44V41.7358H85.8311V47.44C85.8311 48.5809 86.6103 49.3414 87.7791 49.3414H89.7272V53.1442ZM56.6102 93.0737H46.8699V77.8625C46.8699 71.9681 50.9608 67.4047 56.6102 66.6442V93.0737ZM60.5063 66.454C66.1557 67.4047 70.2466 71.9681 70.2466 77.6723V92.8835H60.5063V66.454V66.454ZM5.96068 45.5386H4.01262V41.7358H27.3893V45.5386H25.4413H5.96068ZM13.9477 34.1302H76.0908V30.3274H19.5971L58.5583 4.08802L108.818 37.933H87.7791H29.3374H8.29835L13.9477 34.1302ZM7.90874 49.3414H11.8049V81.6653H15.701V49.3414H23.4932V102.581H7.90874V49.3414V49.3414ZM27.3893 110.186H4.01262V106.384H5.96068H25.4413H27.3893V110.186ZM85.8311 104.482V110.186H31.2854V104.482C31.2854 103.341 30.5062 102.581 29.3374 102.581H27.3893V96.8765H89.7272V102.581H87.7791C86.6103 102.581 85.8311 103.341 85.8311 104.482ZM113.104 110.186H89.7272V106.384H91.6752H111.156H113.104V110.186ZM109.208 102.581H93.6233V49.3414H97.5194V81.6653H101.416V49.3414H109.208V102.581Z" fill="#F5F5F5"/>
<path d="M58.5579 11.3135C54.2721 11.3135 50.7656 14.736 50.7656 18.9191C50.7656 23.1022 54.2721 26.5247 58.5579 26.5247C62.8436 26.5247 66.3501 23.1022 66.3501 18.9191C66.3501 14.736 62.8436 11.3135 58.5579 11.3135ZM58.5579 22.7219C56.415 22.7219 54.6617 21.0106 54.6617 18.9191C54.6617 16.8275 56.415 15.1163 58.5579 15.1163C60.7007 15.1163 62.454 16.8275 62.454 18.9191C62.454 21.0106 60.7007 22.7219 58.5579 22.7219Z" fill="#F5F5F5"/>
<path d="M15.7008 85.468H11.8047V91.1722H15.7008V85.468Z" fill="#F5F5F5"/>
<path d="M101.416 85.468H97.5195V91.1722H101.416V85.468Z" fill="#F5F5F5"/>
<path d="M81.935 102.581H35.1816V106.383H81.935V102.581Z" fill="#F5F5F5"/>
<path d="M68.2985 53.1443H48.8179V56.9471H68.2985V53.1443Z" fill="#F5F5F5"/>
<path d="M64.4022 45.5386H52.7139V49.3414H64.4022V45.5386Z" fill="#F5F5F5"/>
</svg>
