<svg width="12" height="21" viewBox="0 0 12 21" fill="none" xmlns="http://www.w3.org/2000/svg">
<path d="M11.6214 9.844L1.97138 0.195C1.84238 0.064 1.67438 0 1.50038 0C1.32938 0 1.15738 0.064 1.02738 0.195L1.01438 0.207C0.888383 0.334 0.817383 0.506 0.817383 0.682V5.364C0.817383 5.542 0.888383 5.712 1.01438 5.835L5.49538 10.317L1.01438 14.796C0.888383 14.922 0.817383 15.09 0.817383 15.271V19.951C0.817383 20.131 0.888383 20.305 1.01438 20.426L1.02738 20.436C1.15138 20.563 1.32138 20.633 1.50038 20.633C1.67938 20.633 1.84838 20.563 1.97438 20.436L11.6214 10.79C11.8814 10.531 11.8814 10.104 11.6214 9.844Z" fill="white"/>
</svg>
