<svg width="129" height="120" viewBox="0 0 129 120" fill="none" xmlns="http://www.w3.org/2000/svg">
<path d="M128.05 47.6972L88.5431 33.8607V33.5782H91.6179C92.2505 33.5782 92.8129 33.2079 93.0157 32.6576C93.2189 32.1073 93.0175 31.4996 92.515 31.1463L65.977 12.4918V9.39441C68.365 9.00947 70.8101 9.32393 73.3794 9.6552C75.1631 9.88508 76.9811 10.1196 78.8312 10.1196C80.2256 10.1196 81.6379 9.98646 83.0671 9.61779C83.7042 9.45351 84.144 8.92028 84.144 8.31278V1.80672C84.144 1.38247 83.9276 0.982623 83.5595 0.726447C83.1914 0.470271 82.714 0.387048 82.2688 0.501717C79.5386 1.20573 76.7461 0.845725 73.7894 0.464307C71.0164 0.106745 68.1602 -0.261389 65.2301 0.257198C64.8551 0.323614 64.0554 0.516356 64.0344 0.526928C63.4493 0.706929 63.0248 1.20871 63.0248 1.80672V12.4918L36.4864 31.1466C35.984 31.4998 35.7826 32.1076 35.9857 32.6579C36.1888 33.2082 36.7509 33.5785 37.3836 33.5785H40.4583V33.8615L0.950023 47.6972C0.377884 47.8975 0 48.4015 0 48.9637V53.5234C0 53.9693 0.238834 54.3868 0.638859 54.6397C0.888617 54.7977 1.18118 54.8788 1.4764 54.8788C1.65383 54.8788 1.83214 54.8495 2.00219 54.7899L4.59158 53.8831V106.488H3.68289C2.86778 106.488 2.20678 107.095 2.20678 107.843V118.644C2.20678 119.392 2.86778 119.999 3.68289 119.999H125.317C126.132 119.999 126.793 119.392 126.793 118.644V107.843C126.793 107.095 126.132 106.488 125.317 106.488H124.41V53.8834L126.998 54.7899C127.168 54.8495 127.346 54.8788 127.524 54.8788C127.819 54.8788 128.111 54.7975 128.361 54.6397C128.761 54.3868 129 53.9693 129 53.5234V48.9637C129 48.4015 128.622 47.8975 128.05 47.6972ZM65.3195 75.6236C65.0715 75.4718 64.7861 75.3959 64.5009 75.3959C64.2157 75.3959 63.9299 75.4718 63.6822 75.6236L40.4902 89.8196V87.8892L64.5009 73.192L88.5115 87.8892V89.8196L65.3195 75.6236ZM76.5701 33.5782V38.1322C76.5701 38.8807 77.2311 39.4876 78.0462 39.4876H78.1835V78.3095L65.3195 70.4353C64.8236 70.1317 64.1779 70.1317 63.6819 70.4353L50.8162 78.3104V39.4876H50.9549C51.77 39.4876 52.431 38.8807 52.431 38.1322V33.5782H76.5701V33.5782ZM85.5909 36.7768H79.5223V33.5782H85.5909V36.7768ZM49.4791 36.7768H43.4123L43.4109 33.5782H49.4791V36.7768V36.7768ZM45.0248 39.4876H47.8643V80.1174L45.0248 81.8553V39.4876ZM81.136 80.1166V39.4876H83.9755V81.8545L81.136 80.1166ZM41.7405 30.8674L43.3618 29.7275H54.6219C55.437 29.7275 56.098 29.1205 56.098 28.372C56.098 27.6236 55.437 27.0166 54.6219 27.0166H47.2183L49.1464 25.6612H53.7362C54.5513 25.6612 55.2123 25.0542 55.2123 24.3058C55.2123 23.5573 54.5513 22.9503 53.7362 22.9503H53.0029L64.5006 14.8682L87.261 30.8674H41.7405ZM73.3794 3.14914C75.9162 3.47634 78.5227 3.81249 81.1921 3.47011V7.23223C78.8041 7.6169 76.3588 7.3019 73.7897 6.97063C71.2529 6.6437 68.6461 6.30783 65.977 6.64994V2.88836C68.365 2.50368 70.8101 2.81787 73.3794 3.14914ZM2.95222 49.8973L40.4586 36.7627L40.4601 38.4204L2.95222 51.5558V49.8973ZM7.5438 52.8489L42.0726 40.7569V83.6627L38.1952 86.036C37.7845 86.2873 37.5377 86.7105 37.5377 87.1637V92.3523C37.5377 92.8522 37.8374 93.3114 38.3174 93.5473C38.7974 93.7834 39.3796 93.7574 39.8328 93.48L42.1783 92.0444V99.6659H41.0139C40.1988 99.6659 39.5378 100.273 39.5378 101.021V106.488H7.5438V52.8489ZM5.15929 116.361H16.8338C17.6489 116.361 18.3099 115.754 18.3099 115.005C18.3099 114.257 17.6489 113.65 16.8338 113.65H5.15929V112.837H11.5198C12.3349 112.837 12.9959 112.23 12.9959 111.481C12.9959 110.733 12.3349 110.126 11.5198 110.126H5.15929V109.198H39.5381V110.126H33.1776C32.3625 110.126 31.7015 110.733 31.7015 111.481C31.7015 112.23 32.3625 112.837 33.1776 112.837H39.5381V113.65H36.6137C35.7986 113.65 35.1376 114.257 35.1376 115.005C35.1376 115.754 35.7986 116.361 36.6137 116.361H39.5381V117.288H5.15929V116.361ZM44.1427 117.288H42.4901V102.377H44.1427V117.288ZM47.0949 106.072H81.9066V107.624H47.0949V106.072ZM76.6445 103.361H73.4059V92.997H76.6445V103.361ZM70.4537 103.361H65.977V92.997H70.4537V103.361ZM63.0248 103.361H58.548V92.997H63.0248V103.361ZM55.5958 103.361H52.3572V92.997H55.5958V103.361ZM47.0949 110.335H81.9066V112.172H47.0949V110.335ZM47.0949 114.883H81.9066V117.288H47.0949V114.883ZM81.9066 101.021V103.361H79.5964V91.6413C79.5964 90.8928 78.9354 90.2858 78.1203 90.2858H50.8808C50.0657 90.2858 49.4047 90.8928 49.4047 91.6413V103.361H47.0946V101.021C47.0946 100.273 46.4336 99.6657 45.6185 99.6657H45.1305V90.237L51.7674 86.1745H67.0212C67.8363 86.1745 68.4973 85.5676 68.4973 84.8191C68.4973 84.0706 67.8363 83.4637 67.0212 83.4637H56.1963L58.7169 81.9209H62.2976C63.1128 81.9209 63.7738 81.314 63.7738 80.5655C63.7738 80.0244 63.426 79.5611 62.9271 79.344L64.5009 78.3806L83.871 90.2373V99.6659H83.3827C82.5676 99.6657 81.9066 100.273 81.9066 101.021ZM86.5114 117.288H84.8588V102.377H86.5114V117.288ZM89.4636 117.288V116.361H92.3881C93.2032 116.361 93.8642 115.754 93.8642 115.006C93.8642 114.257 93.2032 113.65 92.3881 113.65H89.4636V112.837H95.8242C96.6393 112.837 97.3003 112.23 97.3003 111.481C97.3003 110.733 96.6393 110.126 95.8242 110.126H89.4636V109.198H123.841V110.126H117.48C116.665 110.126 116.004 110.733 116.004 111.481C116.004 112.23 116.665 112.837 117.48 112.837H123.841V113.65H112.166C111.351 113.65 110.69 114.257 110.69 115.006C110.69 115.754 111.351 116.361 112.166 116.361H123.841V117.288H89.4636ZM121.458 106.487H89.4636V101.021C89.4636 100.273 88.8026 99.6657 87.9875 99.6657H86.8232V92.0441L89.1687 93.4798C89.4158 93.631 89.7013 93.7075 89.9877 93.7075C90.2265 93.7075 90.4659 93.6543 90.6841 93.547C91.1641 93.3112 91.4638 92.8519 91.4638 92.3521V87.1635C91.4638 86.7102 91.2173 86.287 90.8063 86.0358L86.9274 83.6613V40.756L121.458 52.8494V106.487H121.458ZM126.048 51.5558L88.5431 38.4206V36.7624L126.048 49.8976V51.5558Z" fill="#F5F5F5"/>
<path d="M64.3508 38.8397C61.8276 38.8397 59.7749 40.7246 59.7749 43.0415V49.2906C59.7749 50.0391 60.4359 50.646 61.251 50.646H67.7515C68.5666 50.646 69.2276 50.0391 69.2276 49.2906V43.0415C69.2276 40.7246 67.1749 38.8397 64.6517 38.8397H64.3508ZM66.2751 43.0415V47.9352H62.7268V43.0415C62.7268 42.2193 63.4551 41.5506 64.3505 41.5506H64.6514C65.5468 41.5506 66.2751 42.2193 66.2751 43.0415Z" fill="#F5F5F5"/>
<path d="M64.6512 54.2166H64.3503C61.8271 54.2166 59.7744 56.1014 59.7744 58.4184V64.6674C59.7744 65.4159 60.4354 66.0229 61.2505 66.0229H67.751C68.5661 66.0229 69.2271 65.4159 69.2271 64.6674V58.4184C69.2271 56.1017 67.1744 54.2166 64.6512 54.2166ZM66.2749 63.3123H62.7266V58.4187C62.7266 57.5965 63.4549 56.9277 64.3503 56.9277H64.6512C65.5466 56.9277 66.2749 57.5965 66.2749 58.4187V63.3123Z" fill="#F5F5F5"/>
<path d="M13.3028 67.1315H19.8033C20.6184 67.1315 21.2794 66.5246 21.2794 65.7761V59.527C21.2794 57.2101 19.2267 55.3252 16.7034 55.3252H16.4026C13.8793 55.3252 11.8267 57.2101 11.8267 59.527V65.7761C11.8267 66.5246 12.4874 67.1315 13.3028 67.1315ZM14.7789 59.527C14.7789 58.7048 15.5072 58.0361 16.4026 58.0361H16.7034C17.5988 58.0361 18.3271 58.7048 18.3271 59.527V64.4207H14.7789V59.527Z" fill="#F5F5F5"/>
<path d="M30.6522 55.3252H30.3513C27.8281 55.3252 25.7754 57.2101 25.7754 59.527V65.7761C25.7754 66.5246 26.4364 67.1315 27.2515 67.1315H33.752C34.5671 67.1315 35.2281 66.5246 35.2281 65.7761V59.527C35.2281 57.2101 33.1754 55.3252 30.6522 55.3252ZM32.2759 64.4207H28.7276V59.527C28.7276 58.7048 29.4559 58.0361 30.3513 58.0361H30.6522C31.5476 58.0361 32.2759 58.7048 32.2759 59.527V64.4207Z" fill="#F5F5F5"/>
<path d="M13.3028 84.4699H19.8033C20.6184 84.4699 21.2794 83.8629 21.2794 83.1145V76.8654C21.2794 74.5484 19.2267 72.6636 16.7034 72.6636H16.4026C13.8793 72.6636 11.8267 74.5484 11.8267 76.8654V83.1145C11.8267 83.8629 12.4874 84.4699 13.3028 84.4699ZM14.7789 76.8651C14.7789 76.0429 15.5072 75.3742 16.4026 75.3742H16.7034C17.5988 75.3742 18.3271 76.0429 18.3271 76.8651V81.7588H14.7789V76.8651Z" fill="#F5F5F5"/>
<path d="M30.6522 72.6633H30.3513C27.8281 72.6633 25.7754 74.5482 25.7754 76.8652V83.1142C25.7754 83.8627 26.4364 84.4696 27.2515 84.4696H33.752C34.5671 84.4696 35.2281 83.8627 35.2281 83.1142V76.8652C35.2281 74.5482 33.1754 72.6633 30.6522 72.6633ZM32.2759 81.7591H28.7276V76.8654C28.7276 76.0432 29.4559 75.3745 30.3513 75.3745H30.6522C31.5476 75.3745 32.2759 76.0432 32.2759 76.8654V81.7591Z" fill="#F5F5F5"/>
<path d="M13.3028 101.808H19.8033C20.6184 101.808 21.2794 101.201 21.2794 100.453V94.2035C21.2794 91.8866 19.2267 90.0017 16.7034 90.0017H16.4026C13.8793 90.0017 11.8267 91.8866 11.8267 94.2035V100.453C11.8267 101.201 12.4874 101.808 13.3028 101.808ZM14.7789 94.2035C14.7789 93.3813 15.5072 92.7126 16.4026 92.7126H16.7034C17.5988 92.7126 18.3271 93.3813 18.3271 94.2035V99.0972H14.7789V94.2035Z" fill="#F5F5F5"/>
<path d="M30.6522 90.0017H30.3513C27.8281 90.0017 25.7754 91.8866 25.7754 94.2035V100.453C25.7754 101.201 26.4364 101.808 27.2515 101.808H33.752C34.5671 101.808 35.2281 101.201 35.2281 100.453V94.2035C35.2281 91.8866 33.1754 90.0017 30.6522 90.0017ZM32.2759 99.0972H28.7276V94.2035C28.7276 93.3813 29.4559 92.7126 30.3513 92.7126H30.6522C31.5476 92.7126 32.2759 93.3813 32.2759 94.2035V99.0972Z" fill="#F5F5F5"/>
<path d="M109.199 67.1315H115.699C116.514 67.1315 117.175 66.5246 117.175 65.7761V59.527C117.175 57.2101 115.123 55.3252 112.599 55.3252H112.299C109.775 55.3252 107.723 57.2101 107.723 59.527V65.7761C107.723 66.5246 108.384 67.1315 109.199 67.1315ZM110.675 59.527C110.675 58.7048 111.403 58.0361 112.299 58.0361H112.599C113.495 58.0361 114.223 58.7048 114.223 59.527V64.4207H110.675V59.527Z" fill="#F5F5F5"/>
<path d="M98.3494 55.3252C95.8261 55.3252 93.7734 57.2101 93.7734 59.527V65.7761C93.7734 66.5246 94.4344 67.1315 95.2495 67.1315H101.75C102.565 67.1315 103.226 66.5246 103.226 65.7761V59.527C103.226 57.2101 101.173 55.3252 98.6502 55.3252H98.3494ZM100.274 59.527V64.4207H96.7257V59.527C96.7257 58.7048 97.454 58.0361 98.3494 58.0361H98.6502C99.5453 58.0361 100.274 58.7048 100.274 59.527Z" fill="#F5F5F5"/>
<path d="M112.599 72.6633H112.298C109.775 72.6633 107.722 74.5482 107.722 76.8652V83.1142C107.722 83.8627 108.383 84.4696 109.198 84.4696H115.699C116.514 84.4696 117.175 83.8627 117.175 83.1142V76.8652C117.175 74.5482 115.122 72.6633 112.599 72.6633ZM114.223 81.7591H110.674V76.8654C110.674 76.0432 111.403 75.3745 112.298 75.3745H112.599C113.494 75.3745 114.223 76.0432 114.223 76.8654V81.7591Z" fill="#F5F5F5"/>
<path d="M98.6502 72.6633H98.3494C95.8261 72.6633 93.7734 74.5482 93.7734 76.8652V83.1142C93.7734 83.8627 94.4344 84.4696 95.2495 84.4696H101.75C102.565 84.4696 103.226 83.8627 103.226 83.1142V76.8652C103.226 74.5482 101.173 72.6633 98.6502 72.6633ZM100.274 81.7591H96.7257V76.8654C96.7257 76.0432 97.454 75.3745 98.3494 75.3745H98.6502C99.5456 75.3745 100.274 76.0432 100.274 76.8654V81.7591Z" fill="#F5F5F5"/>
<path d="M112.599 90.0017H112.298C109.775 90.0017 107.722 91.8866 107.722 94.2035V100.453C107.722 101.201 108.383 101.808 109.198 101.808H115.699C116.514 101.808 117.175 101.201 117.175 100.453V94.2035C117.175 91.8866 115.122 90.0017 112.599 90.0017ZM114.223 99.0972H110.674V94.2035C110.674 93.3813 111.403 92.7126 112.298 92.7126H112.599C113.494 92.7126 114.223 93.3813 114.223 94.2035V99.0972Z" fill="#F5F5F5"/>
<path d="M98.6502 90.0017H98.3494C95.8261 90.0017 93.7734 91.8866 93.7734 94.2035V100.453C93.7734 101.201 94.4344 101.808 95.2495 101.808H101.75C102.565 101.808 103.226 101.201 103.226 100.453V94.2035C103.226 91.8866 101.173 90.0017 98.6502 90.0017ZM100.274 99.0972H96.7257V94.2035C96.7257 93.3813 97.454 92.7126 98.3494 92.7126H98.6502C99.5456 92.7126 100.274 93.3813 100.274 94.2035V99.0972Z" fill="#F5F5F5"/>
<path d="M59.3101 24.5622C59.3101 27.1904 61.6385 29.3285 64.5006 29.3285C67.3628 29.3285 69.6912 27.1904 69.6912 24.5622C69.6912 21.9341 67.3628 19.796 64.5006 19.796C61.6385 19.796 59.3101 21.9341 59.3101 24.5622ZM66.739 24.5622C66.739 25.6957 65.735 26.6176 64.5006 26.6176C63.2663 26.6176 62.2623 25.6957 62.2623 24.5622C62.2623 23.4288 63.2663 22.5069 64.5006 22.5069C65.735 22.5069 66.739 23.4288 66.739 24.5622Z" fill="#F5F5F5"/>
<path d="M55.2124 37.047H64.6595C65.4746 37.047 66.1356 36.4401 66.1356 35.6916C66.1356 34.9431 65.4746 34.3362 64.6595 34.3362H55.2124C54.3973 34.3362 53.7363 34.9431 53.7363 35.6916C53.7363 36.4401 54.397 37.047 55.2124 37.047Z" fill="#F5F5F5"/>
<path d="M36.5435 46.264H39.7909C40.606 46.264 41.267 45.657 41.267 44.9085C41.267 44.1601 40.606 43.5531 39.7909 43.5531H36.5435C35.7284 43.5531 35.0674 44.1601 35.0674 44.9085C35.0674 45.657 35.7284 46.264 36.5435 46.264Z" fill="#F5F5F5"/>
<path d="M31.4952 50.0591H39.7909C40.606 50.0591 41.267 49.4522 41.267 48.7037C41.267 47.9552 40.606 47.3483 39.7909 47.3483H31.4952C30.68 47.3483 30.019 47.9552 30.019 48.7037C30.019 49.4522 30.6797 50.0591 31.4952 50.0591Z" fill="#F5F5F5"/>
<path d="M89.211 46.264H92.4584C93.2735 46.264 93.9345 45.657 93.9345 44.9085C93.9345 44.1601 93.2735 43.5531 92.4584 43.5531H89.211C88.3959 43.5531 87.7349 44.1601 87.7349 44.9085C87.7349 45.657 88.3956 46.264 89.211 46.264Z" fill="#F5F5F5"/>
<path d="M87.7349 48.7037C87.7349 49.4522 88.3959 50.0591 89.211 50.0591H97.5067C98.3218 50.0591 98.9828 49.4522 98.9828 48.7037C98.9828 47.9552 98.3218 47.3483 97.5067 47.3483H89.211C88.3956 47.3483 87.7349 47.955 87.7349 48.7037Z" fill="#F5F5F5"/>
<path d="M16.2709 102.921H9.74857C8.93346 102.921 8.27246 103.528 8.27246 104.276C8.27246 105.025 8.93346 105.632 9.74857 105.632H16.2712C17.0863 105.632 17.7473 105.025 17.7473 104.276C17.7473 103.528 17.0863 102.921 16.2709 102.921Z" fill="#F5F5F5"/>
<path d="M20.0821 102.921C19.6924 102.921 19.3115 103.064 19.037 103.316C18.7624 103.568 18.606 103.918 18.606 104.276C18.606 104.634 18.7624 104.983 19.037 105.233C19.3115 105.488 19.6924 105.631 20.0821 105.631C20.4718 105.631 20.8496 105.488 21.1242 105.236C21.3988 104.983 21.5582 104.634 21.5582 104.276C21.5582 103.918 21.3988 103.568 21.1242 103.316C20.8496 103.064 20.4718 102.921 20.0821 102.921Z" fill="#F5F5F5"/>
<path d="M68.5957 52.9516C68.5957 53.7001 69.2567 54.307 70.0718 54.307H72.6305C73.4456 54.307 74.1066 53.7001 74.1066 52.9516C74.1066 52.2032 73.4456 51.5962 72.6305 51.5962H70.0718C69.2567 51.5962 68.5957 52.2032 68.5957 52.9516Z" fill="#F5F5F5"/>
<path d="M70.9575 56.2949C70.9575 57.0433 71.6185 57.6503 72.4336 57.6503H74.9923C75.8074 57.6503 76.4684 57.0433 76.4684 56.2949C76.4684 55.5464 75.8074 54.9395 74.9923 54.9395H72.4336C71.6185 54.9395 70.9575 55.5464 70.9575 56.2949Z" fill="#F5F5F5"/>
<path d="M54.3272 68.9457H56.8859C57.701 68.9457 58.362 68.3388 58.362 67.5903C58.362 66.8418 57.701 66.2349 56.8859 66.2349H54.3272C53.5121 66.2349 52.8511 66.8418 52.8511 67.5903C52.8511 68.3388 53.5118 68.9457 54.3272 68.9457Z" fill="#F5F5F5"/>
<path d="M106.68 72.1986H109.238C110.054 72.1986 110.715 71.5917 110.715 70.8432C110.715 70.0948 110.054 69.4878 109.238 69.4878H106.68C105.865 69.4878 105.204 70.0948 105.204 70.8432C105.204 71.5917 105.865 72.1986 106.68 72.1986Z" fill="#F5F5F5"/>
</svg>
