<svg width="187" height="214" viewBox="0 0 187 214" fill="none" xmlns="http://www.w3.org/2000/svg">
<path d="M86.2743 80.0766L82.1813 82.0014C77.3092 84.276 72.6817 87.0446 68.3711 90.264C64.0111 93.5449 60.1961 97.3727 57.4711 102.086C55.4261 105.56 54.203 109.459 53.896 113.482C53.5145 118.469 54.6263 123.183 56.501 127.749C58.959 133.726 62.6105 138.981 66.7688 143.913C71.1594 149.041 75.9644 153.796 81.1349 158.131C91.5799 166.977 102.808 174.847 114.68 181.644C124.397 187.244 134.245 192.614 144.109 197.967C150.034 201.182 156.056 204.239 162.094 207.263C166.788 209.64 171.626 211.718 176.58 213.486C176.678 213.525 176.766 213.585 176.838 213.661C176.911 213.738 176.966 213.829 177 213.929C176.727 213.929 176.455 214 176.172 214C151.698 214 127.218 213.987 102.733 213.962C102.204 213.953 101.69 213.785 101.256 213.481C94.429 208.482 87.857 203.142 81.5655 197.48C77.3472 193.653 73.1616 189.776 69.1341 185.751C61.3297 177.931 54.1685 169.57 48.1408 160.318C44.2347 154.494 41.0761 148.2 38.7396 141.584C37.3313 137.463 36.4469 133.18 36.1072 128.837C35.387 119.403 38.3145 110.052 44.2822 102.726C48.9528 96.8313 54.817 92.3364 61.2262 88.4157C63.4879 87.0431 66.0004 86.2885 68.4583 85.4027C71.265 84.3965 74.1045 83.456 76.9548 82.5701C79.8051 81.6842 82.5955 80.9296 85.4186 80.1367C85.6789 80.0743 85.9428 80.0287 86.2089 80L86.2743 80.0766Z" fill="url(#paint0_linear_41_12)"/>
<path d="M65 213.999H63.9156C53.0715 213.999 42.2112 213.999 31.3345 213.999C30.7043 214.014 30.0902 213.798 29.6049 213.394C21.4981 206.932 14.6769 198.987 9.49996 189.977C6.41383 184.639 4.00914 178.931 2.34287 172.988C1.20069 168.9 0.474022 164.705 0.174049 160.469C-0.127719 156.468 -0.0369122 152.447 0.445151 148.463C0.743364 146.078 1.30726 143.726 1.83862 141.369C2.88409 137.103 4.45605 132.985 6.51784 129.112C8.44755 125.364 10.7472 121.82 13.3821 118.536C15.7846 115.517 18.4129 112.687 21.2441 110.072C25.141 106.454 29.3528 103.195 33.8287 100.336C36.9084 98.3876 40.0911 96.6085 43.2413 94.7695C43.835 94.4249 44.4738 94.1659 45.1391 94C44.8192 94.2292 44.5101 94.4693 44.1848 94.6876C40.5454 97.1546 37.1436 99.9591 34.0239 103.064C30.0803 106.936 26.7683 111.41 24.21 116.32C22.2455 120.096 20.839 124.141 20.035 128.326C19.1185 133.215 18.9666 138.218 19.585 143.153C20.1531 147.628 21.1592 152.035 22.5888 156.311C24.2674 161.283 26.3737 166.098 28.8838 170.702C31.8955 176.318 35.3725 181.669 39.2778 186.697C42.4118 190.697 45.5837 194.692 49.0375 198.43C52.757 202.479 56.7856 206.25 60.722 210.103C61.9311 211.287 63.2704 212.346 64.5445 213.465C64.7079 213.633 64.86 213.811 65 213.999Z" fill="url(#paint1_linear_41_12)"/>
<path d="M99.3568 78.0388C94.5013 80.3485 73.3975 88.152 66.4028 107.181C59.4081 126.209 80.7351 147.747 82.8798 149.943C85.0245 152.14 87.6209 155 87.6209 155C77.0119 136.425 72.6137 122.744 82.3464 107.979C92.6887 92.329 143.246 78.4867 161.416 74.6389C179.586 70.7911 187 70.0248 187 70.0248C187 70.0248 178.879 69.8035 159.468 70.6832C140.057 71.5628 130.357 72.8796 120.199 74.0884C113.182 75.0103 106.223 76.3293 99.3568 78.0388Z" fill="url(#paint2_linear_41_12)"/>
<path d="M140 31.3173C138.934 31.8006 137.863 32.2569 136.819 32.762C130.191 35.9846 123.567 39.2108 116.947 42.4407C116.668 42.5765 116.4 42.6797 115.903 42.8806C115.903 41.6911 115.876 40.6701 115.903 39.649C115.926 39.4547 115.885 39.2583 115.787 39.089C115.688 38.9196 115.537 38.7865 115.356 38.7093C108.448 34.87 101.147 31.7747 93.5768 29.476C89.1638 28.0895 84.6176 27.163 80.0117 26.7114C73.8479 26.2293 67.6464 26.7652 61.6589 28.2974C52.5659 30.6418 43.8201 34.1567 35.6435 38.7528C35.4913 38.8589 35.3638 38.9963 35.2695 39.1555C35.1752 39.3148 35.1164 39.4923 35.097 39.6761C35.0205 40.6212 35.0587 41.5717 35.0478 42.5276C35.0131 42.6387 34.9674 42.746 34.9112 42.848L25.5872 38.378V40.3116C25.5872 54.9618 25.5762 69.6084 25.5544 84.2513C25.5443 84.6085 25.6713 84.9561 25.9096 85.2235C29.6753 88.5312 29.4785 92.2083 25.3631 95H20.5809C20.5426 94.9566 20.5153 94.8968 20.4716 94.8696C16.6458 92.8655 16.4108 87.5916 19.925 85.3702C20.0969 85.2133 20.2342 85.0228 20.3282 84.8106C20.4223 84.5984 20.4711 84.3692 20.4716 84.1373C20.4716 75.6861 20.4716 67.2403 20.4716 58.7945C20.4716 51.4151 20.4716 44.0339 20.4716 36.6508C20.508 36.3995 20.4546 36.1435 20.3209 35.9272C20.1871 35.7109 19.9813 35.548 19.7392 35.4668C18.5805 34.9671 17.4765 34.3479 16.3342 33.8048C14.5634 32.9684 12.7817 32.1754 11 31.3281V31.1543C11.1138 31.1393 11.2256 31.112 11.3334 31.0728L25.2374 24.2619L64.3916 5.12177C67.8676 3.42357 71.329 1.71631 74.7758 0H76.1968C76.3444 0.0923332 76.4865 0.195529 76.6395 0.271568L126.85 24.767C131.223 26.9034 135.595 29.0288 139.967 31.1434L140 31.3173Z" fill="url(#paint3_linear_41_12)"/>
<path d="M110.868 64.9675C99.1984 61.1376 87.1875 60.0852 75.0626 60.0852C62.9378 60.0852 50.9106 61.1322 39.16 65C39.1112 64.0615 39.0244 63.1881 39.019 62.3202C38.9937 55.6695 38.9937 49.0187 39.019 42.368C39.0368 42.2109 39.0888 42.0595 39.1713 41.9246C39.2537 41.7897 39.3647 41.6744 39.4964 41.5868C48.0516 37.0843 56.9486 33.5148 66.5454 31.7138C70.8451 30.9812 75.2219 30.8116 79.5654 31.2093C86.9488 31.7518 93.8711 34.0899 100.636 36.8727C103.929 38.2289 107.097 39.8618 110.331 41.3536C110.534 41.4126 110.711 41.5395 110.833 41.7132C110.954 41.8869 111.012 42.0969 110.998 42.3083C110.971 49.7348 110.971 57.1613 110.96 64.5931C110.936 64.7194 110.905 64.8444 110.868 64.9675Z" fill="url(#paint4_linear_41_12)"/>
<defs>
<linearGradient id="paint0_linear_41_12" x1="35.9819" y1="146.937" x2="176.978" y2="146.937" gradientUnits="userSpaceOnUse">
<stop stop-color="#30ABC8"/>
<stop offset="0.79" stop-color="#0C233E"/>
</linearGradient>
<linearGradient id="paint1_linear_41_12" x1="0.011388" y1="153.997" x2="65" y2="153.997" gradientUnits="userSpaceOnUse">
<stop stop-color="#30ABC8"/>
<stop offset="0.79" stop-color="#0C233E"/>
</linearGradient>
<linearGradient id="paint2_linear_41_12" x1="65.0039" y1="112.512" x2="187.027" y2="112.512" gradientUnits="userSpaceOnUse">
<stop stop-color="#30ABC8"/>
<stop offset="0.79" stop-color="#0C233E"/>
</linearGradient>
<linearGradient id="paint3_linear_41_12" x1="11.0164" y1="47.4973" x2="140" y2="47.4973" gradientUnits="userSpaceOnUse">
<stop stop-color="#072138"/>
<stop offset="0.23" stop-color="#7E58D7" stop-opacity="0.9"/>
<stop offset="0.46" stop-color="#493F90" stop-opacity="0.98"/>
<stop offset="0.7" stop-color="#634CB3" stop-opacity="0.95"/>
<stop offset="0.88" stop-color="#30346F" stop-opacity="0.99"/>
<stop offset="1" stop-color="#825ADC" stop-opacity="0.9"/>
</linearGradient>
<linearGradient id="paint4_linear_41_12" x1="38.981" y1="47.988" x2="110.976" y2="47.988" gradientUnits="userSpaceOnUse">
<stop stop-color="#072138"/>
<stop offset="0.23" stop-color="#7E58D7" stop-opacity="0.9"/>
<stop offset="0.46" stop-color="#493F90" stop-opacity="0.98"/>
<stop offset="0.7" stop-color="#634CB3" stop-opacity="0.95"/>
<stop offset="0.88" stop-color="#30346F" stop-opacity="0.99"/>
<stop offset="1" stop-color="#825ADC" stop-opacity="0.9"/>
</linearGradient>
</defs>
</svg>
